;TYPE=PLATED
;Layer: PTH_Through_Via
;EasyEDA Pro v2.2.45.4, 2026-01-27 00:14:52
;Gerber Generator version 0.3
M48
METRIC,LZ,0000.00000
;Hole size 1 = 0.30500 METRIC
T01C0.30500
%
G05
G90
T01
X170.942Y-33.274
X170.93775Y-36.56
X13.72299Y-19.62404
X170.053Y-17.8929
X55.37899Y-19.24304
X171.22191Y-17.64957
X178.94998Y-19.24304
X166.24998Y-20.51304
X234.06799Y-21.14804
X231.01999Y-19.11604
X113.02911Y-38.29101
X152.65311Y-32.44901
X157.98711Y-38.41801
X179.19713Y-32.70199
X203.07211Y-38.41801
X208.91411Y-32.57601
X284.22511Y-37.40201
X288.03511Y-32.32201
X293.36911Y-38.29101
X299.21111Y-32.44901
X38.116Y-20.701
X41.418Y-24.003
X164.1Y-27.559
X176.39652Y-27.91752
X58.54687Y-37.52901
X62.61087Y-32.44901
X103.88587Y-37.40201
X107.69587Y-32.32201
X170.17352Y-30.71152
X175.133Y-30.45752
X13.462Y-34.036
X155.06799Y-32.258
X207.64599Y-32.258
X169.799Y-20.59648
X98.27552Y-19.685
X175.641Y-17.29448
X162.179Y-17.04048
X18.161Y-21.955
X22.987Y-22.463
X11.049Y-34.655
X30.099Y-29.575
X47.05287Y-29.46908
X52.38687Y-23.62708
X58.73687Y-35.56508
X159.258Y-20.939
X174.371Y-20.558
X176.911Y-23.098
X14.859Y-20.463
X10.541Y-21.479
X9.779Y-29.607
X24.765Y-19.955
X41.783Y-17.129
X45.593Y-20.685
X56.769Y-21.193
X65.151Y-29.575
X96.51302Y-21.336
X101.727Y-21.098
X110.109Y-29.48
X141.589Y-21.336
X146.812Y-21.447
X154.432Y-29.067
X183.896Y-24.876
X185.166Y-22.336
X189.992Y-21.32
X237.871Y-21.86
X246.20512Y-31.766
X276.733Y-21.352
X279.908Y-20.209
X291.41712Y-31.893
X321.38931Y-21.225
X324.94531Y-21.225
X328.75531Y-33.671
M30