G04 Layer: TopSilkscreenLayer*
G04 EasyEDA Pro v2.2.45.4, 2026-01-27 00:14:52*
G04 Gerber Generator version 0.3*
G04 Scale: 100 percent, Rotated: No, Reflected: No*
G04 Dimensions in millimeters*
G04 Leading zeros omitted, absolute positions, 4 integers and 5 decimals*
G04 Generated by one-click*
%FSLAX45Y45*%
%MOMM*%
%ADD10C,0.1524*%
%ADD11C,0.0762*%
%ADD12C,0.1*%
%ADD13C,0.254*%
%ADD14C,0.6*%
%ADD15C,0.3010*%
%ADD16C,0.3*%
G75*


G04 Text Start*
G54D10*
G01X1649921Y-2098022D02*
G01X1656271Y-2094974D01*
G01X1662367Y-2088624D01*
G01X1665415Y-2082528D01*
G01X1665415Y-2070082D01*
G01X1662367Y-2063986D01*
G01X1656271Y-2057636D01*
G01X1649921Y-2054588D01*
G01X1640777Y-2051540D01*
G01X1625283Y-2051540D01*
G01X1615885Y-2054588D01*
G01X1609789Y-2057636D01*
G01X1603439Y-2063986D01*
G01X1600391Y-2070082D01*
G01X1600391Y-2082528D01*
G01X1603439Y-2088624D01*
G01X1609789Y-2094974D01*
G01X1615885Y-2098022D01*
G01X1652969Y-2128248D02*
G01X1656271Y-2134344D01*
G01X1665415Y-2143488D01*
G01X1600391Y-2143488D01*
G01X17971580Y-2689878D02*
G01X17965230Y-2692926D01*
G01X17959134Y-2699276D01*
G01X17956086Y-2705372D01*
G01X17956086Y-2717818D01*
G01X17959134Y-2723914D01*
G01X17965230Y-2730264D01*
G01X17971580Y-2733312D01*
G01X17980724Y-2736360D01*
G01X17996218Y-2736360D01*
G01X18005616Y-2733312D01*
G01X18011712Y-2730264D01*
G01X18018062Y-2723914D01*
G01X18021110Y-2717818D01*
G01X18021110Y-2705372D01*
G01X18018062Y-2699276D01*
G01X18011712Y-2692926D01*
G01X18005616Y-2689878D01*
G01X17977676Y-2619520D02*
G01X17987074Y-2622568D01*
G01X17993170Y-2628918D01*
G01X17996218Y-2638062D01*
G01X17996218Y-2641110D01*
G01X17993170Y-2650508D01*
G01X17987074Y-2656604D01*
G01X17977676Y-2659652D01*
G01X17974628Y-2659652D01*
G01X17965230Y-2656604D01*
G01X17959134Y-2650508D01*
G01X17956086Y-2641110D01*
G01X17956086Y-2638062D01*
G01X17959134Y-2628918D01*
G01X17965230Y-2622568D01*
G01X17977676Y-2619520D01*
G01X17993170Y-2619520D01*
G01X18008664Y-2622568D01*
G01X18018062Y-2628918D01*
G01X18021110Y-2638062D01*
G01X18021110Y-2644412D01*
G01X18018062Y-2653556D01*
G01X18011712Y-2656604D01*
G01X5764721Y-2072622D02*
G01X5771071Y-2069574D01*
G01X5777167Y-2063224D01*
G01X5780215Y-2057128D01*
G01X5780215Y-2044682D01*
G01X5777167Y-2038586D01*
G01X5771071Y-2032236D01*
G01X5764721Y-2029188D01*
G01X5755577Y-2026140D01*
G01X5740083Y-2026140D01*
G01X5730685Y-2029188D01*
G01X5724589Y-2032236D01*
G01X5718239Y-2038586D01*
G01X5715191Y-2044682D01*
G01X5715191Y-2057128D01*
G01X5718239Y-2063224D01*
G01X5724589Y-2069574D01*
G01X5730685Y-2072622D01*
G01X5767769Y-2102848D02*
G01X5771071Y-2108944D01*
G01X5780215Y-2118088D01*
G01X5715191Y-2118088D01*
G01X5780215Y-2166856D02*
G01X5777167Y-2157458D01*
G01X5767769Y-2151362D01*
G01X5752529Y-2148314D01*
G01X5743131Y-2148314D01*
G01X5727637Y-2151362D01*
G01X5718239Y-2157458D01*
G01X5715191Y-2166856D01*
G01X5715191Y-2172952D01*
G01X5718239Y-2182350D01*
G01X5727637Y-2188446D01*
G01X5743131Y-2191494D01*
G01X5752529Y-2191494D01*
G01X5767769Y-2188446D01*
G01X5777167Y-2182350D01*
G01X5780215Y-2172952D01*
G01X5780215Y-2166856D01*
G01X10260521Y-2059922D02*
G01X10266871Y-2056874D01*
G01X10272967Y-2050524D01*
G01X10276015Y-2044428D01*
G01X10276015Y-2031982D01*
G01X10272967Y-2025886D01*
G01X10266871Y-2019536D01*
G01X10260521Y-2016488D01*
G01X10251377Y-2013440D01*
G01X10235883Y-2013440D01*
G01X10226485Y-2016488D01*
G01X10220389Y-2019536D01*
G01X10214039Y-2025886D01*
G01X10210991Y-2031982D01*
G01X10210991Y-2044428D01*
G01X10214039Y-2050524D01*
G01X10220389Y-2056874D01*
G01X10226485Y-2059922D01*
G01X10263569Y-2090148D02*
G01X10266871Y-2096244D01*
G01X10276015Y-2105388D01*
G01X10210991Y-2105388D01*
G01X10263569Y-2135614D02*
G01X10266871Y-2141710D01*
G01X10276015Y-2150854D01*
G01X10210991Y-2150854D01*
G01X14769021Y-2072622D02*
G01X14775371Y-2069574D01*
G01X14781467Y-2063224D01*
G01X14784515Y-2057128D01*
G01X14784515Y-2044682D01*
G01X14781467Y-2038586D01*
G01X14775371Y-2032236D01*
G01X14769021Y-2029188D01*
G01X14759877Y-2026140D01*
G01X14744383Y-2026140D01*
G01X14734985Y-2029188D01*
G01X14728889Y-2032236D01*
G01X14722539Y-2038586D01*
G01X14719491Y-2044682D01*
G01X14719491Y-2057128D01*
G01X14722539Y-2063224D01*
G01X14728889Y-2069574D01*
G01X14734985Y-2072622D01*
G01X14772069Y-2102848D02*
G01X14775371Y-2108944D01*
G01X14784515Y-2118088D01*
G01X14719491Y-2118088D01*
G01X14769021Y-2151362D02*
G01X14772069Y-2151362D01*
G01X14778419Y-2154410D01*
G01X14781467Y-2157458D01*
G01X14784515Y-2163554D01*
G01X14784515Y-2176000D01*
G01X14781467Y-2182350D01*
G01X14778419Y-2185398D01*
G01X14772069Y-2188446D01*
G01X14765973Y-2188446D01*
G01X14759877Y-2185398D01*
G01X14750479Y-2179048D01*
G01X14719491Y-2148314D01*
G01X14719491Y-2191494D01*
G01X19302921Y-2072622D02*
G01X19309271Y-2069574D01*
G01X19315367Y-2063224D01*
G01X19318415Y-2057128D01*
G01X19318415Y-2044682D01*
G01X19315367Y-2038586D01*
G01X19309271Y-2032236D01*
G01X19302921Y-2029188D01*
G01X19293777Y-2026140D01*
G01X19278283Y-2026140D01*
G01X19268885Y-2029188D01*
G01X19262789Y-2032236D01*
G01X19256439Y-2038586D01*
G01X19253391Y-2044682D01*
G01X19253391Y-2057128D01*
G01X19256439Y-2063224D01*
G01X19262789Y-2069574D01*
G01X19268885Y-2072622D01*
G01X19305969Y-2102848D02*
G01X19309271Y-2108944D01*
G01X19318415Y-2118088D01*
G01X19253391Y-2118088D01*
G01X19318415Y-2154410D02*
G01X19318415Y-2188446D01*
G01X19293777Y-2169904D01*
G01X19293777Y-2179048D01*
G01X19290729Y-2185398D01*
G01X19287427Y-2188446D01*
G01X19278283Y-2191494D01*
G01X19271933Y-2191494D01*
G01X19262789Y-2188446D01*
G01X19256439Y-2182350D01*
G01X19253391Y-2172952D01*
G01X19253391Y-2163554D01*
G01X19256439Y-2154410D01*
G01X19259741Y-2151362D01*
G01X19265837Y-2148314D01*
G01X23798721Y-2059922D02*
G01X23805071Y-2056874D01*
G01X23811167Y-2050524D01*
G01X23814215Y-2044428D01*
G01X23814215Y-2031982D01*
G01X23811167Y-2025886D01*
G01X23805071Y-2019536D01*
G01X23798721Y-2016488D01*
G01X23789577Y-2013440D01*
G01X23774083Y-2013440D01*
G01X23764685Y-2016488D01*
G01X23758589Y-2019536D01*
G01X23752239Y-2025886D01*
G01X23749191Y-2031982D01*
G01X23749191Y-2044428D01*
G01X23752239Y-2050524D01*
G01X23758589Y-2056874D01*
G01X23764685Y-2059922D01*
G01X23801769Y-2090148D02*
G01X23805071Y-2096244D01*
G01X23814215Y-2105388D01*
G01X23749191Y-2105388D01*
G01X23814215Y-2166348D02*
G01X23771035Y-2135614D01*
G01X23771035Y-2181842D01*
G01X23814215Y-2166348D02*
G01X23749191Y-2166348D01*
G01X28269121Y-2072622D02*
G01X28275471Y-2069574D01*
G01X28281567Y-2063224D01*
G01X28284615Y-2057128D01*
G01X28284615Y-2044682D01*
G01X28281567Y-2038586D01*
G01X28275471Y-2032236D01*
G01X28269121Y-2029188D01*
G01X28259977Y-2026140D01*
G01X28244483Y-2026140D01*
G01X28235085Y-2029188D01*
G01X28228989Y-2032236D01*
G01X28222639Y-2038586D01*
G01X28219591Y-2044682D01*
G01X28219591Y-2057128D01*
G01X28222639Y-2063224D01*
G01X28228989Y-2069574D01*
G01X28235085Y-2072622D01*
G01X28272169Y-2102848D02*
G01X28275471Y-2108944D01*
G01X28284615Y-2118088D01*
G01X28219591Y-2118088D01*
G01X28284615Y-2185398D02*
G01X28284615Y-2154410D01*
G01X28256929Y-2151362D01*
G01X28259977Y-2154410D01*
G01X28263025Y-2163554D01*
G01X28263025Y-2172952D01*
G01X28259977Y-2182350D01*
G01X28253627Y-2188446D01*
G01X28244483Y-2191494D01*
G01X28238133Y-2191494D01*
G01X28228989Y-2188446D01*
G01X28222639Y-2182350D01*
G01X28219591Y-2172952D01*
G01X28219591Y-2163554D01*
G01X28222639Y-2154410D01*
G01X28225941Y-2151362D01*
G01X28232037Y-2148314D01*
G01X32790321Y-2059922D02*
G01X32796671Y-2056874D01*
G01X32802767Y-2050524D01*
G01X32805815Y-2044428D01*
G01X32805815Y-2031982D01*
G01X32802767Y-2025886D01*
G01X32796671Y-2019536D01*
G01X32790321Y-2016488D01*
G01X32781177Y-2013440D01*
G01X32765683Y-2013440D01*
G01X32756285Y-2016488D01*
G01X32750189Y-2019536D01*
G01X32743839Y-2025886D01*
G01X32740791Y-2031982D01*
G01X32740791Y-2044428D01*
G01X32743839Y-2050524D01*
G01X32750189Y-2056874D01*
G01X32756285Y-2059922D01*
G01X32793369Y-2090148D02*
G01X32796671Y-2096244D01*
G01X32805815Y-2105388D01*
G01X32740791Y-2105388D01*
G01X32796671Y-2172698D02*
G01X32802767Y-2169650D01*
G01X32805815Y-2160252D01*
G01X32805815Y-2154156D01*
G01X32802767Y-2144758D01*
G01X32793369Y-2138662D01*
G01X32778129Y-2135614D01*
G01X32762635Y-2135614D01*
G01X32750189Y-2138662D01*
G01X32743839Y-2144758D01*
G01X32740791Y-2154156D01*
G01X32740791Y-2157204D01*
G01X32743839Y-2166348D01*
G01X32750189Y-2172698D01*
G01X32759333Y-2175746D01*
G01X32762635Y-2175746D01*
G01X32771779Y-2172698D01*
G01X32778129Y-2166348D01*
G01X32781177Y-2157204D01*
G01X32781177Y-2154156D01*
G01X32778129Y-2144758D01*
G01X32771779Y-2138662D01*
G01X32762635Y-2135614D01*
G01X2818321Y-3342622D02*
G01X2824671Y-3339574D01*
G01X2830767Y-3333224D01*
G01X2833815Y-3327128D01*
G01X2833815Y-3314682D01*
G01X2830767Y-3308586D01*
G01X2824671Y-3302236D01*
G01X2818321Y-3299188D01*
G01X2809177Y-3296140D01*
G01X2793683Y-3296140D01*
G01X2784285Y-3299188D01*
G01X2778189Y-3302236D01*
G01X2771839Y-3308586D01*
G01X2768791Y-3314682D01*
G01X2768791Y-3327128D01*
G01X2771839Y-3333224D01*
G01X2778189Y-3339574D01*
G01X2784285Y-3342622D01*
G01X2821369Y-3372848D02*
G01X2824671Y-3378944D01*
G01X2833815Y-3388088D01*
G01X2768791Y-3388088D01*
G01X2812225Y-3458446D02*
G01X2802827Y-3455398D01*
G01X2796731Y-3449048D01*
G01X2793683Y-3439904D01*
G01X2793683Y-3436856D01*
G01X2796731Y-3427458D01*
G01X2802827Y-3421362D01*
G01X2812225Y-3418314D01*
G01X2815273Y-3418314D01*
G01X2824671Y-3421362D01*
G01X2830767Y-3427458D01*
G01X2833815Y-3436856D01*
G01X2833815Y-3439904D01*
G01X2830767Y-3449048D01*
G01X2824671Y-3455398D01*
G01X2812225Y-3458446D01*
G01X2796731Y-3458446D01*
G01X2781237Y-3455398D01*
G01X2771839Y-3449048D01*
G01X2768791Y-3439904D01*
G01X2768791Y-3433554D01*
G01X2771839Y-3424410D01*
G01X2778189Y-3421362D01*
G01X7276021Y-3342622D02*
G01X7282371Y-3339574D01*
G01X7288467Y-3333224D01*
G01X7291515Y-3327128D01*
G01X7291515Y-3314682D01*
G01X7288467Y-3308586D01*
G01X7282371Y-3302236D01*
G01X7276021Y-3299188D01*
G01X7266877Y-3296140D01*
G01X7251383Y-3296140D01*
G01X7241985Y-3299188D01*
G01X7235889Y-3302236D01*
G01X7229539Y-3308586D01*
G01X7226491Y-3314682D01*
G01X7226491Y-3327128D01*
G01X7229539Y-3333224D01*
G01X7235889Y-3339574D01*
G01X7241985Y-3342622D01*
G01X7276021Y-3375896D02*
G01X7279069Y-3375896D01*
G01X7285419Y-3378944D01*
G01X7288467Y-3381992D01*
G01X7291515Y-3388088D01*
G01X7291515Y-3400534D01*
G01X7288467Y-3406884D01*
G01X7285419Y-3409932D01*
G01X7279069Y-3412980D01*
G01X7272973Y-3412980D01*
G01X7266877Y-3409932D01*
G01X7257479Y-3403582D01*
G01X7226491Y-3372848D01*
G01X7226491Y-3416028D01*
G01X7291515Y-3464796D02*
G01X7288467Y-3455398D01*
G01X7279069Y-3449302D01*
G01X7263829Y-3446254D01*
G01X7254431Y-3446254D01*
G01X7238937Y-3449302D01*
G01X7229539Y-3455398D01*
G01X7226491Y-3464796D01*
G01X7226491Y-3470892D01*
G01X7229539Y-3480290D01*
G01X7238937Y-3486386D01*
G01X7254431Y-3489434D01*
G01X7263829Y-3489434D01*
G01X7279069Y-3486386D01*
G01X7288467Y-3480290D01*
G01X7291515Y-3470892D01*
G01X7291515Y-3464796D01*
G01X11809921Y-3342622D02*
G01X11816271Y-3339574D01*
G01X11822367Y-3333224D01*
G01X11825415Y-3327128D01*
G01X11825415Y-3314682D01*
G01X11822367Y-3308586D01*
G01X11816271Y-3302236D01*
G01X11809921Y-3299188D01*
G01X11800777Y-3296140D01*
G01X11785283Y-3296140D01*
G01X11775885Y-3299188D01*
G01X11769789Y-3302236D01*
G01X11763439Y-3308586D01*
G01X11760391Y-3314682D01*
G01X11760391Y-3327128D01*
G01X11763439Y-3333224D01*
G01X11769789Y-3339574D01*
G01X11775885Y-3342622D01*
G01X11809921Y-3375896D02*
G01X11812969Y-3375896D01*
G01X11819319Y-3378944D01*
G01X11822367Y-3381992D01*
G01X11825415Y-3388088D01*
G01X11825415Y-3400534D01*
G01X11822367Y-3406884D01*
G01X11819319Y-3409932D01*
G01X11812969Y-3412980D01*
G01X11806873Y-3412980D01*
G01X11800777Y-3409932D01*
G01X11791379Y-3403582D01*
G01X11760391Y-3372848D01*
G01X11760391Y-3416028D01*
G01X11812969Y-3446254D02*
G01X11816271Y-3452350D01*
G01X11825415Y-3461494D01*
G01X11760391Y-3461494D01*
G01X16331121Y-3406122D02*
G01X16337471Y-3403074D01*
G01X16343567Y-3396724D01*
G01X16346615Y-3390628D01*
G01X16346615Y-3378182D01*
G01X16343567Y-3372086D01*
G01X16337471Y-3365736D01*
G01X16331121Y-3362688D01*
G01X16321977Y-3359640D01*
G01X16306483Y-3359640D01*
G01X16297085Y-3362688D01*
G01X16290989Y-3365736D01*
G01X16284639Y-3372086D01*
G01X16281591Y-3378182D01*
G01X16281591Y-3390628D01*
G01X16284639Y-3396724D01*
G01X16290989Y-3403074D01*
G01X16297085Y-3406122D01*
G01X16331121Y-3439396D02*
G01X16334169Y-3439396D01*
G01X16340519Y-3442444D01*
G01X16343567Y-3445492D01*
G01X16346615Y-3451588D01*
G01X16346615Y-3464034D01*
G01X16343567Y-3470384D01*
G01X16340519Y-3473432D01*
G01X16334169Y-3476480D01*
G01X16328073Y-3476480D01*
G01X16321977Y-3473432D01*
G01X16312579Y-3467082D01*
G01X16281591Y-3436348D01*
G01X16281591Y-3479528D01*
G01X16331121Y-3512802D02*
G01X16334169Y-3512802D01*
G01X16340519Y-3515850D01*
G01X16343567Y-3518898D01*
G01X16346615Y-3524994D01*
G01X16346615Y-3537440D01*
G01X16343567Y-3543790D01*
G01X16340519Y-3546838D01*
G01X16334169Y-3549886D01*
G01X16328073Y-3549886D01*
G01X16321977Y-3546838D01*
G01X16312579Y-3540488D01*
G01X16281591Y-3509754D01*
G01X16281591Y-3552934D01*
G01X20852321Y-3355322D02*
G01X20858671Y-3352274D01*
G01X20864767Y-3345924D01*
G01X20867815Y-3339828D01*
G01X20867815Y-3327382D01*
G01X20864767Y-3321286D01*
G01X20858671Y-3314936D01*
G01X20852321Y-3311888D01*
G01X20843177Y-3308840D01*
G01X20827683Y-3308840D01*
G01X20818285Y-3311888D01*
G01X20812189Y-3314936D01*
G01X20805839Y-3321286D01*
G01X20802791Y-3327382D01*
G01X20802791Y-3339828D01*
G01X20805839Y-3345924D01*
G01X20812189Y-3352274D01*
G01X20818285Y-3355322D01*
G01X20852321Y-3388596D02*
G01X20855369Y-3388596D01*
G01X20861719Y-3391644D01*
G01X20864767Y-3394692D01*
G01X20867815Y-3400788D01*
G01X20867815Y-3413234D01*
G01X20864767Y-3419584D01*
G01X20861719Y-3422632D01*
G01X20855369Y-3425680D01*
G01X20849273Y-3425680D01*
G01X20843177Y-3422632D01*
G01X20833779Y-3416282D01*
G01X20802791Y-3385548D01*
G01X20802791Y-3428728D01*
G01X20867815Y-3465050D02*
G01X20867815Y-3499086D01*
G01X20843177Y-3480544D01*
G01X20843177Y-3489688D01*
G01X20840129Y-3496038D01*
G01X20836827Y-3499086D01*
G01X20827683Y-3502134D01*
G01X20821333Y-3502134D01*
G01X20812189Y-3499086D01*
G01X20805839Y-3492990D01*
G01X20802791Y-3483592D01*
G01X20802791Y-3474194D01*
G01X20805839Y-3465050D01*
G01X20809141Y-3462002D01*
G01X20815237Y-3458954D01*
G01X25310021Y-3342622D02*
G01X25316371Y-3339574D01*
G01X25322467Y-3333224D01*
G01X25325515Y-3327128D01*
G01X25325515Y-3314682D01*
G01X25322467Y-3308586D01*
G01X25316371Y-3302236D01*
G01X25310021Y-3299188D01*
G01X25300877Y-3296140D01*
G01X25285383Y-3296140D01*
G01X25275985Y-3299188D01*
G01X25269889Y-3302236D01*
G01X25263539Y-3308586D01*
G01X25260491Y-3314682D01*
G01X25260491Y-3327128D01*
G01X25263539Y-3333224D01*
G01X25269889Y-3339574D01*
G01X25275985Y-3342622D01*
G01X25310021Y-3375896D02*
G01X25313069Y-3375896D01*
G01X25319419Y-3378944D01*
G01X25322467Y-3381992D01*
G01X25325515Y-3388088D01*
G01X25325515Y-3400534D01*
G01X25322467Y-3406884D01*
G01X25319419Y-3409932D01*
G01X25313069Y-3412980D01*
G01X25306973Y-3412980D01*
G01X25300877Y-3409932D01*
G01X25291479Y-3403582D01*
G01X25260491Y-3372848D01*
G01X25260491Y-3416028D01*
G01X25325515Y-3476988D02*
G01X25282335Y-3446254D01*
G01X25282335Y-3492482D01*
G01X25325515Y-3476988D02*
G01X25260491Y-3476988D01*
G01X29843921Y-3342622D02*
G01X29850271Y-3339574D01*
G01X29856367Y-3333224D01*
G01X29859415Y-3327128D01*
G01X29859415Y-3314682D01*
G01X29856367Y-3308586D01*
G01X29850271Y-3302236D01*
G01X29843921Y-3299188D01*
G01X29834777Y-3296140D01*
G01X29819283Y-3296140D01*
G01X29809885Y-3299188D01*
G01X29803789Y-3302236D01*
G01X29797439Y-3308586D01*
G01X29794391Y-3314682D01*
G01X29794391Y-3327128D01*
G01X29797439Y-3333224D01*
G01X29803789Y-3339574D01*
G01X29809885Y-3342622D01*
G01X29843921Y-3375896D02*
G01X29846969Y-3375896D01*
G01X29853319Y-3378944D01*
G01X29856367Y-3381992D01*
G01X29859415Y-3388088D01*
G01X29859415Y-3400534D01*
G01X29856367Y-3406884D01*
G01X29853319Y-3409932D01*
G01X29846969Y-3412980D01*
G01X29840873Y-3412980D01*
G01X29834777Y-3409932D01*
G01X29825379Y-3403582D01*
G01X29794391Y-3372848D01*
G01X29794391Y-3416028D01*
G01X29859415Y-3483338D02*
G01X29859415Y-3452350D01*
G01X29831729Y-3449302D01*
G01X29834777Y-3452350D01*
G01X29837825Y-3461494D01*
G01X29837825Y-3470892D01*
G01X29834777Y-3480290D01*
G01X29828427Y-3486386D01*
G01X29819283Y-3489434D01*
G01X29812933Y-3489434D01*
G01X29803789Y-3486386D01*
G01X29797439Y-3480290D01*
G01X29794391Y-3470892D01*
G01X29794391Y-3461494D01*
G01X29797439Y-3452350D01*
G01X29800741Y-3449302D01*
G01X29806837Y-3446254D01*
G01X33171321Y-3329922D02*
G01X33177671Y-3326874D01*
G01X33183767Y-3320524D01*
G01X33186815Y-3314428D01*
G01X33186815Y-3301982D01*
G01X33183767Y-3295886D01*
G01X33177671Y-3289536D01*
G01X33171321Y-3286488D01*
G01X33162177Y-3283440D01*
G01X33146683Y-3283440D01*
G01X33137285Y-3286488D01*
G01X33131189Y-3289536D01*
G01X33124839Y-3295886D01*
G01X33121791Y-3301982D01*
G01X33121791Y-3314428D01*
G01X33124839Y-3320524D01*
G01X33131189Y-3326874D01*
G01X33137285Y-3329922D01*
G01X33171321Y-3363196D02*
G01X33174369Y-3363196D01*
G01X33180719Y-3366244D01*
G01X33183767Y-3369292D01*
G01X33186815Y-3375388D01*
G01X33186815Y-3387834D01*
G01X33183767Y-3394184D01*
G01X33180719Y-3397232D01*
G01X33174369Y-3400280D01*
G01X33168273Y-3400280D01*
G01X33162177Y-3397232D01*
G01X33152779Y-3390882D01*
G01X33121791Y-3360148D01*
G01X33121791Y-3403328D01*
G01X33177671Y-3470638D02*
G01X33183767Y-3467590D01*
G01X33186815Y-3458192D01*
G01X33186815Y-3452096D01*
G01X33183767Y-3442698D01*
G01X33174369Y-3436602D01*
G01X33159129Y-3433554D01*
G01X33143635Y-3433554D01*
G01X33131189Y-3436602D01*
G01X33124839Y-3442698D01*
G01X33121791Y-3452096D01*
G01X33121791Y-3455144D01*
G01X33124839Y-3464288D01*
G01X33131189Y-3470638D01*
G01X33140333Y-3473686D01*
G01X33143635Y-3473686D01*
G01X33152779Y-3470638D01*
G01X33159129Y-3464288D01*
G01X33162177Y-3455144D01*
G01X33162177Y-3452096D01*
G01X33159129Y-3442698D01*
G01X33152779Y-3436602D01*
G01X33143635Y-3433554D01*
G01X907034Y-1861820D02*
G01X842010Y-1861820D01*
G01X891540Y-1895094D02*
G01X894588Y-1895094D01*
G01X900938Y-1898142D01*
G01X903986Y-1901190D01*
G01X907034Y-1907286D01*
G01X907034Y-1919732D01*
G01X903986Y-1926082D01*
G01X900938Y-1929130D01*
G01X894588Y-1932178D01*
G01X888492Y-1932178D01*
G01X882396Y-1929130D01*
G01X872998Y-1922780D01*
G01X842010Y-1892046D01*
G01X842010Y-1935226D01*
G01X891540Y-2011680D02*
G01X897890Y-2008632D01*
G01X903986Y-2002536D01*
G01X907034Y-1996186D01*
G01X907034Y-1983994D01*
G01X903986Y-1977644D01*
G01X897890Y-1971548D01*
G01X891540Y-1968500D01*
G01X882396Y-1965452D01*
G01X866902Y-1965452D01*
G01X857504Y-1968500D01*
G01X851408Y-1971548D01*
G01X845058Y-1977644D01*
G01X842010Y-1983994D01*
G01X842010Y-1996186D01*
G01X845058Y-2002536D01*
G01X851408Y-2008632D01*
G01X857504Y-2011680D01*
G01X678434Y-2509520D02*
G01X613410Y-2509520D01*
G01X678434Y-2509520D02*
G01X613410Y-2552954D01*
G01X678434Y-2552954D02*
G01X613410Y-2552954D01*
G01X638302Y-2583180D02*
G01X638302Y-2620264D01*
G01X644398Y-2620264D01*
G01X650748Y-2617216D01*
G01X653796Y-2613914D01*
G01X656844Y-2607818D01*
G01X656844Y-2598420D01*
G01X653796Y-2592324D01*
G01X647446Y-2586228D01*
G01X638302Y-2583180D01*
G01X631952Y-2583180D01*
G01X622808Y-2586228D01*
G01X616458Y-2592324D01*
G01X613410Y-2598420D01*
G01X613410Y-2607818D01*
G01X616458Y-2613914D01*
G01X622808Y-2620264D01*
G01X656844Y-2665730D02*
G01X653796Y-2659634D01*
G01X647446Y-2653538D01*
G01X638302Y-2650490D01*
G01X631952Y-2650490D01*
G01X622808Y-2653538D01*
G01X616458Y-2659634D01*
G01X613410Y-2665730D01*
G01X613410Y-2675128D01*
G01X616458Y-2681224D01*
G01X622808Y-2687574D01*
G01X631952Y-2690622D01*
G01X638302Y-2690622D01*
G01X647446Y-2687574D01*
G01X653796Y-2681224D01*
G01X656844Y-2675128D01*
G01X656844Y-2665730D01*
G01X678434Y-2720848D02*
G01X613410Y-2720848D01*
G01X678434Y-2720848D02*
G01X678434Y-2748534D01*
G01X675386Y-2757932D01*
G01X672338Y-2760980D01*
G01X665988Y-2764028D01*
G01X656844Y-2764028D01*
G01X650748Y-2760980D01*
G01X647446Y-2757932D01*
G01X644398Y-2748534D01*
G01X644398Y-2720848D01*
G01X678434Y-2794254D02*
G01X675386Y-2797302D01*
G01X678434Y-2800350D01*
G01X681482Y-2797302D01*
G01X678434Y-2794254D01*
G01X656844Y-2797302D02*
G01X613410Y-2797302D01*
G01X656844Y-2830576D02*
G01X613410Y-2864612D01*
G01X656844Y-2864612D02*
G01X613410Y-2830576D01*
G01X1061720Y-1950466D02*
G01X1061720Y-1996948D01*
G01X1064768Y-2006092D01*
G01X1071118Y-2012442D01*
G01X1080262Y-2015490D01*
G01X1086612Y-2015490D01*
G01X1095756Y-2012442D01*
G01X1101852Y-2006092D01*
G01X1105154Y-1996948D01*
G01X1105154Y-1950466D01*
G01X1135380Y-1962912D02*
G01X1141476Y-1959610D01*
G01X1150620Y-1950466D01*
G01X1150620Y-2015490D01*
G01X5062322Y-1952871D02*
G01X5062322Y-1999353D01*
G01X5065370Y-2008497D01*
G01X5071720Y-2014847D01*
G01X5080864Y-2017895D01*
G01X5087214Y-2017895D01*
G01X5096358Y-2014847D01*
G01X5102454Y-2008497D01*
G01X5105756Y-1999353D01*
G01X5105756Y-1952871D01*
G01X5139030Y-1968365D02*
G01X5139030Y-1965317D01*
G01X5142078Y-1958967D01*
G01X5145126Y-1955919D01*
G01X5151222Y-1952871D01*
G01X5163668Y-1952871D01*
G01X5170018Y-1955919D01*
G01X5173066Y-1958967D01*
G01X5176114Y-1965317D01*
G01X5176114Y-1971413D01*
G01X5173066Y-1977509D01*
G01X5166716Y-1986907D01*
G01X5135982Y-2017895D01*
G01X5179162Y-2017895D01*
G01X9558122Y-1940171D02*
G01X9558122Y-1986653D01*
G01X9561170Y-1995797D01*
G01X9567520Y-2002147D01*
G01X9576664Y-2005195D01*
G01X9583014Y-2005195D01*
G01X9592158Y-2002147D01*
G01X9598254Y-1995797D01*
G01X9601556Y-1986653D01*
G01X9601556Y-1940171D01*
G01X9637878Y-1940171D02*
G01X9671914Y-1940171D01*
G01X9653372Y-1964809D01*
G01X9662516Y-1964809D01*
G01X9668866Y-1967857D01*
G01X9671914Y-1971159D01*
G01X9674962Y-1980303D01*
G01X9674962Y-1986653D01*
G01X9671914Y-1995797D01*
G01X9665818Y-2002147D01*
G01X9656420Y-2005195D01*
G01X9647022Y-2005195D01*
G01X9637878Y-2002147D01*
G01X9634830Y-1998845D01*
G01X9631782Y-1992749D01*
G01X14053922Y-1940171D02*
G01X14053922Y-1986653D01*
G01X14056970Y-1995797D01*
G01X14063320Y-2002147D01*
G01X14072464Y-2005195D01*
G01X14078814Y-2005195D01*
G01X14087958Y-2002147D01*
G01X14094054Y-1995797D01*
G01X14097356Y-1986653D01*
G01X14097356Y-1940171D01*
G01X14158316Y-1940171D02*
G01X14127582Y-1983351D01*
G01X14173810Y-1983351D01*
G01X14158316Y-1940171D02*
G01X14158316Y-2005195D01*
G01X18562422Y-1952871D02*
G01X18562422Y-1999353D01*
G01X18565470Y-2008497D01*
G01X18571820Y-2014847D01*
G01X18580964Y-2017895D01*
G01X18587314Y-2017895D01*
G01X18596458Y-2014847D01*
G01X18602554Y-2008497D01*
G01X18605856Y-1999353D01*
G01X18605856Y-1952871D01*
G01X18673166Y-1952871D02*
G01X18642178Y-1952871D01*
G01X18639130Y-1980557D01*
G01X18642178Y-1977509D01*
G01X18651322Y-1974461D01*
G01X18660720Y-1974461D01*
G01X18670118Y-1977509D01*
G01X18676214Y-1983859D01*
G01X18679262Y-1993003D01*
G01X18679262Y-1999353D01*
G01X18676214Y-2008497D01*
G01X18670118Y-2014847D01*
G01X18660720Y-2017895D01*
G01X18651322Y-2017895D01*
G01X18642178Y-2014847D01*
G01X18639130Y-2011545D01*
G01X18636082Y-2005449D01*
G01X23032822Y-1940171D02*
G01X23032822Y-1986653D01*
G01X23035870Y-1995797D01*
G01X23042220Y-2002147D01*
G01X23051364Y-2005195D01*
G01X23057714Y-2005195D01*
G01X23066858Y-2002147D01*
G01X23072954Y-1995797D01*
G01X23076256Y-1986653D01*
G01X23076256Y-1940171D01*
G01X23143566Y-1949315D02*
G01X23140518Y-1943219D01*
G01X23131120Y-1940171D01*
G01X23125024Y-1940171D01*
G01X23115626Y-1943219D01*
G01X23109530Y-1952617D01*
G01X23106482Y-1967857D01*
G01X23106482Y-1983351D01*
G01X23109530Y-1995797D01*
G01X23115626Y-2002147D01*
G01X23125024Y-2005195D01*
G01X23128072Y-2005195D01*
G01X23137216Y-2002147D01*
G01X23143566Y-1995797D01*
G01X23146614Y-1986653D01*
G01X23146614Y-1983351D01*
G01X23143566Y-1974207D01*
G01X23137216Y-1967857D01*
G01X23128072Y-1964809D01*
G01X23125024Y-1964809D01*
G01X23115626Y-1967857D01*
G01X23109530Y-1974207D01*
G01X23106482Y-1983351D01*
G01X27566722Y-1940171D02*
G01X27566722Y-1986653D01*
G01X27569770Y-1995797D01*
G01X27576120Y-2002147D01*
G01X27585264Y-2005195D01*
G01X27591614Y-2005195D01*
G01X27600758Y-2002147D01*
G01X27606854Y-1995797D01*
G01X27610156Y-1986653D01*
G01X27610156Y-1940171D01*
G01X27683562Y-1940171D02*
G01X27652574Y-2005195D01*
G01X27640382Y-1940171D02*
G01X27683562Y-1940171D01*
G01X32056338Y-1939658D02*
G01X32056338Y-1986140D01*
G01X32059386Y-1995284D01*
G01X32065736Y-2001634D01*
G01X32074880Y-2004682D01*
G01X32081230Y-2004682D01*
G01X32090374Y-2001634D01*
G01X32096470Y-1995284D01*
G01X32099772Y-1986140D01*
G01X32099772Y-1939658D01*
G01X32145238Y-1939658D02*
G01X32136094Y-1942706D01*
G01X32133046Y-1948802D01*
G01X32133046Y-1955152D01*
G01X32136094Y-1961248D01*
G01X32142190Y-1964296D01*
G01X32154636Y-1967344D01*
G01X32164034Y-1970646D01*
G01X32170130Y-1976742D01*
G01X32173178Y-1982838D01*
G01X32173178Y-1992236D01*
G01X32170130Y-1998332D01*
G01X32167082Y-2001634D01*
G01X32157684Y-2004682D01*
G01X32145238Y-2004682D01*
G01X32136094Y-2001634D01*
G01X32133046Y-1998332D01*
G01X32129998Y-1992236D01*
G01X32129998Y-1982838D01*
G01X32133046Y-1976742D01*
G01X32139142Y-1970646D01*
G01X32148540Y-1967344D01*
G01X32160732Y-1964296D01*
G01X32167082Y-1961248D01*
G01X32170130Y-1955152D01*
G01X32170130Y-1948802D01*
G01X32167082Y-1942706D01*
G01X32157684Y-1939658D01*
G01X32145238Y-1939658D01*
G01X1671066Y-3782868D02*
G01X1717548Y-3782868D01*
G01X1726692Y-3779820D01*
G01X1733042Y-3773470D01*
G01X1736090Y-3764326D01*
G01X1736090Y-3757976D01*
G01X1733042Y-3748832D01*
G01X1726692Y-3742736D01*
G01X1717548Y-3739434D01*
G01X1671066Y-3739434D01*
G01X1692656Y-3669076D02*
G01X1702054Y-3672124D01*
G01X1708150Y-3678474D01*
G01X1711198Y-3687618D01*
G01X1711198Y-3690666D01*
G01X1708150Y-3700064D01*
G01X1702054Y-3706160D01*
G01X1692656Y-3709208D01*
G01X1689608Y-3709208D01*
G01X1680210Y-3706160D01*
G01X1674114Y-3700064D01*
G01X1671066Y-3690666D01*
G01X1671066Y-3687618D01*
G01X1674114Y-3678474D01*
G01X1680210Y-3672124D01*
G01X1692656Y-3669076D01*
G01X1708150Y-3669076D01*
G01X1723644Y-3672124D01*
G01X1733042Y-3678474D01*
G01X1736090Y-3687618D01*
G01X1736090Y-3693968D01*
G01X1733042Y-3703112D01*
G01X1726692Y-3706160D01*
G01X6154166Y-3795568D02*
G01X6200648Y-3795568D01*
G01X6209792Y-3792520D01*
G01X6216142Y-3786170D01*
G01X6219190Y-3777026D01*
G01X6219190Y-3770676D01*
G01X6216142Y-3761532D01*
G01X6209792Y-3755436D01*
G01X6200648Y-3752134D01*
G01X6154166Y-3752134D01*
G01X6166612Y-3721908D02*
G01X6163310Y-3715812D01*
G01X6154166Y-3706668D01*
G01X6219190Y-3706668D01*
G01X6154166Y-3657900D02*
G01X6157214Y-3667298D01*
G01X6166612Y-3673394D01*
G01X6181852Y-3676442D01*
G01X6191250Y-3676442D01*
G01X6206744Y-3673394D01*
G01X6216142Y-3667298D01*
G01X6219190Y-3657900D01*
G01X6219190Y-3651804D01*
G01X6216142Y-3642406D01*
G01X6206744Y-3636310D01*
G01X6191250Y-3633262D01*
G01X6181852Y-3633262D01*
G01X6166612Y-3636310D01*
G01X6157214Y-3642406D01*
G01X6154166Y-3651804D01*
G01X6154166Y-3657900D01*
G01X10662666Y-3808268D02*
G01X10709148Y-3808268D01*
G01X10718292Y-3805220D01*
G01X10724642Y-3798870D01*
G01X10727690Y-3789726D01*
G01X10727690Y-3783376D01*
G01X10724642Y-3774232D01*
G01X10718292Y-3768136D01*
G01X10709148Y-3764834D01*
G01X10662666Y-3764834D01*
G01X10675112Y-3734608D02*
G01X10671810Y-3728512D01*
G01X10662666Y-3719368D01*
G01X10727690Y-3719368D01*
G01X10675112Y-3689142D02*
G01X10671810Y-3683046D01*
G01X10662666Y-3673902D01*
G01X10727690Y-3673902D01*
G01X15158466Y-3820968D02*
G01X15204948Y-3820968D01*
G01X15214092Y-3817920D01*
G01X15220442Y-3811570D01*
G01X15223490Y-3802426D01*
G01X15223490Y-3796076D01*
G01X15220442Y-3786932D01*
G01X15214092Y-3780836D01*
G01X15204948Y-3777534D01*
G01X15158466Y-3777534D01*
G01X15170912Y-3747308D02*
G01X15167610Y-3741212D01*
G01X15158466Y-3732068D01*
G01X15223490Y-3732068D01*
G01X15173960Y-3698794D02*
G01X15170912Y-3698794D01*
G01X15164562Y-3695746D01*
G01X15161514Y-3692698D01*
G01X15158466Y-3686602D01*
G01X15158466Y-3674156D01*
G01X15161514Y-3667806D01*
G01X15164562Y-3664758D01*
G01X15170912Y-3661710D01*
G01X15177008Y-3661710D01*
G01X15183104Y-3664758D01*
G01X15192502Y-3671108D01*
G01X15223490Y-3701842D01*
G01X15223490Y-3658662D01*
G01X19666966Y-3820968D02*
G01X19713448Y-3820968D01*
G01X19722592Y-3817920D01*
G01X19728942Y-3811570D01*
G01X19731990Y-3802426D01*
G01X19731990Y-3796076D01*
G01X19728942Y-3786932D01*
G01X19722592Y-3780836D01*
G01X19713448Y-3777534D01*
G01X19666966Y-3777534D01*
G01X19679412Y-3747308D02*
G01X19676110Y-3741212D01*
G01X19666966Y-3732068D01*
G01X19731990Y-3732068D01*
G01X19666966Y-3695746D02*
G01X19666966Y-3661710D01*
G01X19691604Y-3680252D01*
G01X19691604Y-3671108D01*
G01X19694652Y-3664758D01*
G01X19697954Y-3661710D01*
G01X19707098Y-3658662D01*
G01X19713448Y-3658662D01*
G01X19722592Y-3661710D01*
G01X19728942Y-3667806D01*
G01X19731990Y-3677204D01*
G01X19731990Y-3686602D01*
G01X19728942Y-3695746D01*
G01X19725640Y-3698794D01*
G01X19719544Y-3701842D01*
G01X24175466Y-3795568D02*
G01X24221948Y-3795568D01*
G01X24231092Y-3792520D01*
G01X24237442Y-3786170D01*
G01X24240490Y-3777026D01*
G01X24240490Y-3770676D01*
G01X24237442Y-3761532D01*
G01X24231092Y-3755436D01*
G01X24221948Y-3752134D01*
G01X24175466Y-3752134D01*
G01X24187912Y-3721908D02*
G01X24184610Y-3715812D01*
G01X24175466Y-3706668D01*
G01X24240490Y-3706668D01*
G01X24175466Y-3645708D02*
G01X24218646Y-3676442D01*
G01X24218646Y-3630214D01*
G01X24175466Y-3645708D02*
G01X24240490Y-3645708D01*
G01X28696666Y-3808268D02*
G01X28743148Y-3808268D01*
G01X28752292Y-3805220D01*
G01X28758642Y-3798870D01*
G01X28761690Y-3789726D01*
G01X28761690Y-3783376D01*
G01X28758642Y-3774232D01*
G01X28752292Y-3768136D01*
G01X28743148Y-3764834D01*
G01X28696666Y-3764834D01*
G01X28709112Y-3734608D02*
G01X28705810Y-3728512D01*
G01X28696666Y-3719368D01*
G01X28761690Y-3719368D01*
G01X28696666Y-3652058D02*
G01X28696666Y-3683046D01*
G01X28724352Y-3686094D01*
G01X28721304Y-3683046D01*
G01X28718256Y-3673902D01*
G01X28718256Y-3664504D01*
G01X28721304Y-3655106D01*
G01X28727654Y-3649010D01*
G01X28736798Y-3645962D01*
G01X28743148Y-3645962D01*
G01X28752292Y-3649010D01*
G01X28758642Y-3655106D01*
G01X28761690Y-3664504D01*
G01X28761690Y-3673902D01*
G01X28758642Y-3683046D01*
G01X28755340Y-3686094D01*
G01X28749244Y-3689142D01*
G01X33192466Y-3795568D02*
G01X33238948Y-3795568D01*
G01X33248092Y-3792520D01*
G01X33254442Y-3786170D01*
G01X33257490Y-3777026D01*
G01X33257490Y-3770676D01*
G01X33254442Y-3761532D01*
G01X33248092Y-3755436D01*
G01X33238948Y-3752134D01*
G01X33192466Y-3752134D01*
G01X33204912Y-3721908D02*
G01X33201610Y-3715812D01*
G01X33192466Y-3706668D01*
G01X33257490Y-3706668D01*
G01X33201610Y-3639358D02*
G01X33195514Y-3642406D01*
G01X33192466Y-3651804D01*
G01X33192466Y-3657900D01*
G01X33195514Y-3667298D01*
G01X33204912Y-3673394D01*
G01X33220152Y-3676442D01*
G01X33235646Y-3676442D01*
G01X33248092Y-3673394D01*
G01X33254442Y-3667298D01*
G01X33257490Y-3657900D01*
G01X33257490Y-3654852D01*
G01X33254442Y-3645708D01*
G01X33248092Y-3639358D01*
G01X33238948Y-3636310D01*
G01X33235646Y-3636310D01*
G01X33226502Y-3639358D01*
G01X33220152Y-3645708D01*
G01X33217104Y-3654852D01*
G01X33217104Y-3657900D01*
G01X33220152Y-3667298D01*
G01X33226502Y-3673394D01*
G01X33235646Y-3676442D01*
G01X16060264Y-1685314D02*
G01X16060264Y-1731796D01*
G01X16063312Y-1740940D01*
G01X16069662Y-1747290D01*
G01X16078806Y-1750338D01*
G01X16085156Y-1750338D01*
G01X16094300Y-1747290D01*
G01X16100396Y-1740940D01*
G01X16103698Y-1731796D01*
G01X16103698Y-1685314D01*
G01X16133924Y-1697760D02*
G01X16140020Y-1694458D01*
G01X16149164Y-1685314D01*
G01X16149164Y-1750338D01*
G01X16222570Y-1685314D02*
G01X16191582Y-1750338D01*
G01X16179390Y-1685314D02*
G01X16222570Y-1685314D01*
G01X3690010Y-1888773D02*
G01X3665118Y-1953797D01*
G01X3690010Y-1888773D02*
G01X3714648Y-1953797D01*
G01X3674516Y-1931953D02*
G01X3705250Y-1931953D01*
G01X3763416Y-1888773D02*
G01X3754018Y-1891821D01*
G01X3747922Y-1901219D01*
G01X3744874Y-1916459D01*
G01X3744874Y-1925857D01*
G01X3747922Y-1941351D01*
G01X3754018Y-1950749D01*
G01X3763416Y-1953797D01*
G01X3769512Y-1953797D01*
G01X3778910Y-1950749D01*
G01X3785006Y-1941351D01*
G01X3788054Y-1925857D01*
G01X3788054Y-1916459D01*
G01X3785006Y-1901219D01*
G01X3778910Y-1891821D01*
G01X3769512Y-1888773D01*
G01X3763416Y-1888773D01*
G01X3893712Y-1887366D02*
G01X3868820Y-1952390D01*
G01X3893712Y-1887366D02*
G01X3918350Y-1952390D01*
G01X3878218Y-1930546D02*
G01X3908952Y-1930546D01*
G01X3948576Y-1899812D02*
G01X3954672Y-1896510D01*
G01X3963816Y-1887366D01*
G01X3963816Y-1952390D01*
G01X4083710Y-1898273D02*
G01X4058818Y-1963297D01*
G01X4083710Y-1898273D02*
G01X4108348Y-1963297D01*
G01X4068216Y-1941453D02*
G01X4098950Y-1941453D01*
G01X4141622Y-1913767D02*
G01X4141622Y-1910719D01*
G01X4144670Y-1904369D01*
G01X4147718Y-1901321D01*
G01X4153814Y-1898273D01*
G01X4166260Y-1898273D01*
G01X4172610Y-1901321D01*
G01X4175658Y-1904369D01*
G01X4178706Y-1910719D01*
G01X4178706Y-1916815D01*
G01X4175658Y-1922911D01*
G01X4169308Y-1932309D01*
G01X4138574Y-1963297D01*
G01X4181754Y-1963297D01*
G01X4659213Y-2174763D02*
G01X4659213Y-2109739D01*
G01X4659213Y-2174763D02*
G01X4631273Y-2174763D01*
G01X4622129Y-2171715D01*
G01X4619081Y-2168667D01*
G01X4615779Y-2162317D01*
G01X4615779Y-2156221D01*
G01X4619081Y-2150125D01*
G01X4622129Y-2147077D01*
G01X4631273Y-2143775D01*
G01X4659213Y-2143775D01*
G01X4637623Y-2143775D02*
G01X4615779Y-2109739D01*
G01X4548469Y-2174763D02*
G01X4579457Y-2174763D01*
G01X4582505Y-2147077D01*
G01X4579457Y-2150125D01*
G01X4570313Y-2153173D01*
G01X4560915Y-2153173D01*
G01X4551517Y-2150125D01*
G01X4545421Y-2143775D01*
G01X4542373Y-2134631D01*
G01X4542373Y-2128281D01*
G01X4545421Y-2119137D01*
G01X4551517Y-2112787D01*
G01X4560915Y-2109739D01*
G01X4570313Y-2109739D01*
G01X4579457Y-2112787D01*
G01X4582505Y-2116089D01*
G01X4585553Y-2122185D01*
G01X4163913Y-1908063D02*
G01X4163913Y-1843039D01*
G01X4163913Y-1908063D02*
G01X4135973Y-1908063D01*
G01X4126829Y-1905015D01*
G01X4123781Y-1901967D01*
G01X4120479Y-1895617D01*
G01X4120479Y-1889521D01*
G01X4123781Y-1883425D01*
G01X4126829Y-1880377D01*
G01X4135973Y-1877075D01*
G01X4163913Y-1877075D01*
G01X4142323Y-1877075D02*
G01X4120479Y-1843039D01*
G01X4053169Y-1898919D02*
G01X4056217Y-1905015D01*
G01X4065615Y-1908063D01*
G01X4071711Y-1908063D01*
G01X4081109Y-1905015D01*
G01X4087205Y-1895617D01*
G01X4090253Y-1880377D01*
G01X4090253Y-1864883D01*
G01X4087205Y-1852437D01*
G01X4081109Y-1846087D01*
G01X4071711Y-1843039D01*
G01X4068663Y-1843039D01*
G01X4059519Y-1846087D01*
G01X4053169Y-1852437D01*
G01X4050121Y-1861581D01*
G01X4050121Y-1864883D01*
G01X4053169Y-1874027D01*
G01X4059519Y-1880377D01*
G01X4068663Y-1883425D01*
G01X4071711Y-1883425D01*
G01X4081109Y-1880377D01*
G01X4087205Y-1874027D01*
G01X4090253Y-1864883D01*
G01X3113187Y-1787637D02*
G01X3113187Y-1852661D01*
G01X3113187Y-1787637D02*
G01X3141127Y-1787637D01*
G01X3150271Y-1790685D01*
G01X3153319Y-1793733D01*
G01X3156621Y-1800083D01*
G01X3156621Y-1806179D01*
G01X3153319Y-1812275D01*
G01X3150271Y-1815323D01*
G01X3141127Y-1818625D01*
G01X3113187Y-1818625D01*
G01X3134777Y-1818625D02*
G01X3156621Y-1852661D01*
G01X3230027Y-1787637D02*
G01X3199039Y-1852661D01*
G01X3186847Y-1787637D02*
G01X3230027Y-1787637D01*
G54D11*
G01X3991864Y-2820924D02*
G01X4006596Y-2820924D01*
G01X3998468Y-2831846D01*
G01X4002532Y-2831846D01*
G01X4005326Y-2833116D01*
G01X4006596Y-2834386D01*
G01X4007866Y-2838450D01*
G01X4007866Y-2841244D01*
G01X4006596Y-2845308D01*
G01X4003802Y-2848102D01*
G01X3999992Y-2849372D01*
G01X3995928Y-2849372D01*
G01X3991864Y-2848102D01*
G01X3990340Y-2846578D01*
G01X3989070Y-2844038D01*
G01X3868420Y-2827782D02*
G01X3868420Y-2826512D01*
G01X3869944Y-2823718D01*
G01X3871214Y-2822448D01*
G01X3874008Y-2820924D01*
G01X3879342Y-2820924D01*
G01X3881882Y-2822448D01*
G01X3883406Y-2823718D01*
G01X3884676Y-2826512D01*
G01X3884676Y-2829052D01*
G01X3883406Y-2831846D01*
G01X3880612Y-2835910D01*
G01X3867150Y-2849372D01*
G01X3885946Y-2849372D01*
G01X3735070Y-2823972D02*
G01X3737864Y-2822448D01*
G01X3741928Y-2818384D01*
G01X3741928Y-2846832D01*
G01X3671316Y-2389378D02*
G01X3669792Y-2386584D01*
G01X3667252Y-2384044D01*
G01X3664458Y-2382520D01*
G01X3660394Y-2381250D01*
G01X3653790Y-2381250D01*
G01X3649726Y-2382520D01*
G01X3646932Y-2384044D01*
G01X3644138Y-2386584D01*
G01X3642868Y-2389378D01*
G01X3642868Y-2394712D01*
G01X3644138Y-2397506D01*
G01X3646932Y-2400046D01*
G01X3649726Y-2401570D01*
G01X3653790Y-2402840D01*
G01X3660394Y-2402840D01*
G01X3664458Y-2401570D01*
G01X3667252Y-2400046D01*
G01X3669792Y-2397506D01*
G01X3671316Y-2394712D01*
G01X3671316Y-2389378D01*
G01X3671316Y-2417064D02*
G01X3642868Y-2417064D01*
G01X3671316Y-2417064D02*
G01X3642868Y-2435860D01*
G01X3671316Y-2435860D02*
G01X3642868Y-2435860D01*
G54D10*
G01X3642355Y-2073402D02*
G01X3636005Y-2067306D01*
G01X3626861Y-2064258D01*
G01X3614415Y-2064258D01*
G01X3605017Y-2067306D01*
G01X3598921Y-2073402D01*
G01X3598921Y-2079752D01*
G01X3601969Y-2085848D01*
G01X3605017Y-2088896D01*
G01X3611367Y-2091944D01*
G01X3629909Y-2098294D01*
G01X3636005Y-2101342D01*
G01X3639053Y-2104390D01*
G01X3642355Y-2110740D01*
G01X3642355Y-2119884D01*
G01X3636005Y-2126234D01*
G01X3626861Y-2129282D01*
G01X3614415Y-2129282D01*
G01X3605017Y-2126234D01*
G01X3598921Y-2119884D01*
G01X3672581Y-2064258D02*
G01X3687821Y-2129282D01*
G01X3703315Y-2064258D02*
G01X3687821Y-2129282D01*
G01X3703315Y-2064258D02*
G01X3718809Y-2129282D01*
G01X3734303Y-2064258D02*
G01X3718809Y-2129282D01*
G01X3764529Y-2076704D02*
G01X3770625Y-2073402D01*
G01X3779769Y-2064258D01*
G01X3779769Y-2129282D01*
G01X235204Y-3055366D02*
G01X204216Y-3055366D01*
G01X201168Y-3083052D01*
G01X204216Y-3080004D01*
G01X213614Y-3076956D01*
G01X223012Y-3076956D01*
G01X232156Y-3080004D01*
G01X238252Y-3086354D01*
G01X241554Y-3095498D01*
G01X241554Y-3101848D01*
G01X238252Y-3110992D01*
G01X232156Y-3117342D01*
G01X223012Y-3120390D01*
G01X213614Y-3120390D01*
G01X204216Y-3117342D01*
G01X201168Y-3114040D01*
G01X198120Y-3107944D01*
G01X271780Y-3055366D02*
G01X296418Y-3120390D01*
G01X321310Y-3055366D02*
G01X296418Y-3120390D01*
G01X351536Y-3055366D02*
G01X351536Y-3120390D01*
G01X351536Y-3055366D02*
G01X373126Y-3055366D01*
G01X382270Y-3058414D01*
G01X388620Y-3064510D01*
G01X391668Y-3070860D01*
G01X394716Y-3080004D01*
G01X394716Y-3095498D01*
G01X391668Y-3104896D01*
G01X388620Y-3110992D01*
G01X382270Y-3117342D01*
G01X373126Y-3120390D01*
G01X351536Y-3120390D01*
G01X471170Y-3070860D02*
G01X468122Y-3064510D01*
G01X462026Y-3058414D01*
G01X455676Y-3055366D01*
G01X443484Y-3055366D01*
G01X437134Y-3058414D01*
G01X431038Y-3064510D01*
G01X427990Y-3070860D01*
G01X424942Y-3080004D01*
G01X424942Y-3095498D01*
G01X427990Y-3104896D01*
G01X431038Y-3110992D01*
G01X437134Y-3117342D01*
G01X443484Y-3120390D01*
G01X455676Y-3120390D01*
G01X462026Y-3117342D01*
G01X468122Y-3110992D01*
G01X471170Y-3104896D01*
G01X501396Y-3067812D02*
G01X507492Y-3064510D01*
G01X516636Y-3055366D01*
G01X516636Y-3120390D01*
G01X1154621Y-3279122D02*
G01X1160971Y-3276074D01*
G01X1167067Y-3269724D01*
G01X1170115Y-3263628D01*
G01X1170115Y-3251182D01*
G01X1167067Y-3245086D01*
G01X1160971Y-3238736D01*
G01X1154621Y-3235688D01*
G01X1145477Y-3232640D01*
G01X1129983Y-3232640D01*
G01X1120585Y-3235688D01*
G01X1114489Y-3238736D01*
G01X1108139Y-3245086D01*
G01X1105091Y-3251182D01*
G01X1105091Y-3263628D01*
G01X1108139Y-3269724D01*
G01X1114489Y-3276074D01*
G01X1120585Y-3279122D01*
G01X1154621Y-3312396D02*
G01X1157669Y-3312396D01*
G01X1164019Y-3315444D01*
G01X1167067Y-3318492D01*
G01X1170115Y-3324588D01*
G01X1170115Y-3337034D01*
G01X1167067Y-3343384D01*
G01X1164019Y-3346432D01*
G01X1157669Y-3349480D01*
G01X1151573Y-3349480D01*
G01X1145477Y-3346432D01*
G01X1136079Y-3340082D01*
G01X1105091Y-3309348D01*
G01X1105091Y-3352528D01*
G01X1170115Y-3425934D02*
G01X1105091Y-3394946D01*
G01X1170115Y-3382754D02*
G01X1170115Y-3425934D01*
G54D12*
G01X787908Y-3575304D02*
G01X787908Y-3531616D01*
G01X748538Y-3527298D01*
G01X752856Y-3531616D01*
G01X757174Y-3544824D01*
G01X757174Y-3557778D01*
G01X752856Y-3570986D01*
G01X744220Y-3579876D01*
G01X731012Y-3584194D01*
G01X722376Y-3584194D01*
G01X709168Y-3579876D01*
G01X700278Y-3570986D01*
G01X695960Y-3557778D01*
G01X695960Y-3544824D01*
G01X700278Y-3531616D01*
G01X704850Y-3527298D01*
G01X713486Y-3522980D01*
G01X787908Y-3615182D02*
G01X695960Y-3650234D01*
G01X787908Y-3685286D02*
G01X695960Y-3650234D01*
G01X766064Y-3220212D02*
G01X774700Y-3215894D01*
G01X783590Y-3207004D01*
G01X787908Y-3198368D01*
G01X787908Y-3180842D01*
G01X783590Y-3172206D01*
G01X774700Y-3163316D01*
G01X766064Y-3158998D01*
G01X752856Y-3154680D01*
G01X731012Y-3154680D01*
G01X717804Y-3158998D01*
G01X709168Y-3163316D01*
G01X700278Y-3172206D01*
G01X695960Y-3180842D01*
G01X695960Y-3198368D01*
G01X700278Y-3207004D01*
G01X709168Y-3215894D01*
G01X717804Y-3220212D01*
G01X731012Y-3220212D01*
G01X731012Y-3198368D02*
G01X731012Y-3220212D01*
G01X787908Y-3251200D02*
G01X695960Y-3251200D01*
G01X787908Y-3251200D02*
G01X695960Y-3312414D01*
G01X787908Y-3312414D02*
G01X695960Y-3312414D01*
G01X787908Y-3343402D02*
G01X695960Y-3343402D01*
G01X787908Y-3343402D02*
G01X787908Y-3374136D01*
G01X783590Y-3387090D01*
G01X774700Y-3395980D01*
G01X766064Y-3400298D01*
G01X752856Y-3404616D01*
G01X731012Y-3404616D01*
G01X717804Y-3400298D01*
G01X709168Y-3395980D01*
G01X700278Y-3387090D01*
G01X695960Y-3374136D01*
G01X695960Y-3343402D01*
G01X508508Y-2392680D02*
G01X416560Y-2392680D01*
G01X508508Y-2392680D02*
G01X508508Y-2423160D01*
G01X504190Y-2436368D01*
G01X495300Y-2445004D01*
G01X486664Y-2449576D01*
G01X473456Y-2453894D01*
G01X451612Y-2453894D01*
G01X438404Y-2449576D01*
G01X429768Y-2445004D01*
G01X420878Y-2436368D01*
G01X416560Y-2423160D01*
G01X416560Y-2392680D01*
G01X508508Y-2484882D02*
G01X504190Y-2489200D01*
G01X508508Y-2493518D01*
G01X512826Y-2489200D01*
G01X508508Y-2484882D01*
G01X477774Y-2489200D02*
G01X416560Y-2489200D01*
G01X477774Y-2524506D02*
G01X416560Y-2524506D01*
G01X460248Y-2524506D02*
G01X473456Y-2537714D01*
G01X477774Y-2546350D01*
G01X477774Y-2559558D01*
G01X473456Y-2568194D01*
G01X460248Y-2572766D01*
G01X416560Y-2572766D01*
G01X508508Y-2672080D02*
G01X416560Y-2672080D01*
G01X508508Y-2672080D02*
G01X508508Y-2702560D01*
G01X504190Y-2715768D01*
G01X495300Y-2724404D01*
G01X486664Y-2728976D01*
G01X473456Y-2733294D01*
G01X451612Y-2733294D01*
G01X438404Y-2728976D01*
G01X429768Y-2724404D01*
G01X420878Y-2715768D01*
G01X416560Y-2702560D01*
G01X416560Y-2672080D01*
G01X477774Y-2786126D02*
G01X473456Y-2777490D01*
G01X464820Y-2768600D01*
G01X451612Y-2764282D01*
G01X442976Y-2764282D01*
G01X429768Y-2768600D01*
G01X420878Y-2777490D01*
G01X416560Y-2786126D01*
G01X416560Y-2799334D01*
G01X420878Y-2807970D01*
G01X429768Y-2816860D01*
G01X442976Y-2821178D01*
G01X451612Y-2821178D01*
G01X464820Y-2816860D01*
G01X473456Y-2807970D01*
G01X477774Y-2799334D01*
G01X477774Y-2786126D01*
G01X477774Y-2852166D02*
G01X434086Y-2852166D01*
G01X420878Y-2856484D01*
G01X416560Y-2865374D01*
G01X416560Y-2878328D01*
G01X420878Y-2887218D01*
G01X434086Y-2900426D01*
G01X477774Y-2900426D02*
G01X416560Y-2900426D01*
G01X508508Y-2944622D02*
G01X434086Y-2944622D01*
G01X420878Y-2948940D01*
G01X416560Y-2957576D01*
G01X416560Y-2966466D01*
G01X477774Y-2931414D02*
G01X477774Y-2962148D01*
G01X762000Y-2043826D02*
G01X770890Y-2034936D01*
G01X775208Y-2021982D01*
G01X775208Y-2004456D01*
G01X770890Y-1991248D01*
G01X762000Y-1982612D01*
G01X753364Y-1982612D01*
G01X744474Y-1986930D01*
G01X740156Y-1991248D01*
G01X735838Y-2000138D01*
G01X726948Y-2026300D01*
G01X722630Y-2034936D01*
G01X718312Y-2039508D01*
G01X709676Y-2043826D01*
G01X696468Y-2043826D01*
G01X687578Y-2034936D01*
G01X683260Y-2021982D01*
G01X683260Y-2004456D01*
G01X687578Y-1991248D01*
G01X696468Y-1982612D01*
G01X753364Y-2140346D02*
G01X762000Y-2136028D01*
G01X770890Y-2127392D01*
G01X775208Y-2118502D01*
G01X775208Y-2100976D01*
G01X770890Y-2092340D01*
G01X762000Y-2083450D01*
G01X753364Y-2079132D01*
G01X740156Y-2074814D01*
G01X718312Y-2074814D01*
G01X705104Y-2079132D01*
G01X696468Y-2083450D01*
G01X687578Y-2092340D01*
G01X683260Y-2100976D01*
G01X683260Y-2118502D01*
G01X687578Y-2127392D01*
G01X696468Y-2136028D01*
G01X705104Y-2140346D01*
G01X775208Y-2171334D02*
G01X683260Y-2171334D01*
G01X683260Y-2171334D02*
G01X683260Y-2223912D01*
G01X762000Y-1717294D02*
G01X770890Y-1708404D01*
G01X775208Y-1695450D01*
G01X775208Y-1677924D01*
G01X770890Y-1664716D01*
G01X762000Y-1656080D01*
G01X753364Y-1656080D01*
G01X744474Y-1660398D01*
G01X740156Y-1664716D01*
G01X735838Y-1673606D01*
G01X726948Y-1699768D01*
G01X722630Y-1708404D01*
G01X718312Y-1712976D01*
G01X709676Y-1717294D01*
G01X696468Y-1717294D01*
G01X687578Y-1708404D01*
G01X683260Y-1695450D01*
G01X683260Y-1677924D01*
G01X687578Y-1664716D01*
G01X696468Y-1656080D01*
G01X775208Y-1748282D02*
G01X683260Y-1748282D01*
G01X775208Y-1748282D02*
G01X775208Y-1779016D01*
G01X770890Y-1791970D01*
G01X762000Y-1800860D01*
G01X753364Y-1805178D01*
G01X740156Y-1809496D01*
G01X718312Y-1809496D01*
G01X705104Y-1805178D01*
G01X696468Y-1800860D01*
G01X687578Y-1791970D01*
G01X683260Y-1779016D01*
G01X683260Y-1748282D01*
G01X775208Y-1875536D02*
G01X683260Y-1840484D01*
G01X775208Y-1875536D02*
G01X683260Y-1910588D01*
G01X713994Y-1853692D02*
G01X713994Y-1897380D01*
G54D10*
G01X2071291Y-1952986D02*
G01X2071291Y-2018010D01*
G01X2071291Y-1952986D02*
G01X2099231Y-1952986D01*
G01X2108375Y-1956034D01*
G01X2111423Y-1959082D01*
G01X2114725Y-1965432D01*
G01X2114725Y-1971528D01*
G01X2111423Y-1977624D01*
G01X2108375Y-1980672D01*
G01X2099231Y-1983974D01*
G01X2071291Y-1983974D01*
G01X2092881Y-1983974D02*
G01X2114725Y-2018010D01*
G01X2160191Y-1952986D02*
G01X2151047Y-1956034D01*
G01X2147999Y-1962130D01*
G01X2147999Y-1968480D01*
G01X2151047Y-1974576D01*
G01X2157143Y-1977624D01*
G01X2169589Y-1980672D01*
G01X2178987Y-1983974D01*
G01X2185083Y-1990070D01*
G01X2188131Y-1996166D01*
G01X2188131Y-2005564D01*
G01X2185083Y-2011660D01*
G01X2182035Y-2014962D01*
G01X2172637Y-2018010D01*
G01X2160191Y-2018010D01*
G01X2151047Y-2014962D01*
G01X2147999Y-2011660D01*
G01X2144951Y-2005564D01*
G01X2144951Y-1996166D01*
G01X2147999Y-1990070D01*
G01X2154095Y-1983974D01*
G01X2163493Y-1980672D01*
G01X2175685Y-1977624D01*
G01X2182035Y-1974576D01*
G01X2185083Y-1968480D01*
G01X2185083Y-1962130D01*
G01X2182035Y-1956034D01*
G01X2172637Y-1952986D01*
G01X2160191Y-1952986D01*
G01X2071291Y-1737086D02*
G01X2071291Y-1802110D01*
G01X2071291Y-1737086D02*
G01X2099231Y-1737086D01*
G01X2108375Y-1740134D01*
G01X2111423Y-1743182D01*
G01X2114725Y-1749532D01*
G01X2114725Y-1755628D01*
G01X2111423Y-1761724D01*
G01X2108375Y-1764772D01*
G01X2099231Y-1768074D01*
G01X2071291Y-1768074D01*
G01X2092881Y-1768074D02*
G01X2114725Y-1802110D01*
G01X2185083Y-1758676D02*
G01X2182035Y-1768074D01*
G01X2175685Y-1774170D01*
G01X2166541Y-1777218D01*
G01X2163493Y-1777218D01*
G01X2154095Y-1774170D01*
G01X2147999Y-1768074D01*
G01X2144951Y-1758676D01*
G01X2144951Y-1755628D01*
G01X2147999Y-1746230D01*
G01X2154095Y-1740134D01*
G01X2163493Y-1737086D01*
G01X2166541Y-1737086D01*
G01X2175685Y-1740134D01*
G01X2182035Y-1746230D01*
G01X2185083Y-1758676D01*
G01X2185083Y-1774170D01*
G01X2182035Y-1789664D01*
G01X2175685Y-1799062D01*
G01X2166541Y-1802110D01*
G01X2160191Y-1802110D01*
G01X2151047Y-1799062D01*
G01X2147999Y-1792712D01*
G54D12*
G01X3218942Y-2793492D02*
G01X3205734Y-2797810D01*
G01X3197098Y-2811018D01*
G01X3192780Y-2832862D01*
G01X3192780Y-2846070D01*
G01X3197098Y-2867914D01*
G01X3205734Y-2881122D01*
G01X3218942Y-2885440D01*
G01X3227578Y-2885440D01*
G01X3240786Y-2881122D01*
G01X3249676Y-2867914D01*
G01X3253994Y-2846070D01*
G01X3253994Y-2832862D01*
G01X3249676Y-2811018D01*
G01X3240786Y-2797810D01*
G01X3227578Y-2793492D01*
G01X3218942Y-2793492D01*
G01X3284982Y-2824226D02*
G01X3333242Y-2885440D01*
G01X3333242Y-2824226D02*
G01X3284982Y-2885440D01*
G01X3368548Y-2815336D02*
G01X3368548Y-2811018D01*
G01X3372866Y-2802128D01*
G01X3377438Y-2797810D01*
G01X3386074Y-2793492D01*
G01X3403600Y-2793492D01*
G01X3412490Y-2797810D01*
G01X3416808Y-2802128D01*
G01X3421126Y-2811018D01*
G01X3421126Y-2819654D01*
G01X3416808Y-2828544D01*
G01X3407918Y-2841752D01*
G01X3364230Y-2885440D01*
G01X3425444Y-2885440D01*
G01X3482594Y-2793492D02*
G01X3469640Y-2797810D01*
G01X3460750Y-2811018D01*
G01X3456432Y-2832862D01*
G01X3456432Y-2846070D01*
G01X3460750Y-2867914D01*
G01X3469640Y-2881122D01*
G01X3482594Y-2885440D01*
G01X3491484Y-2885440D01*
G01X3504692Y-2881122D01*
G01X3513328Y-2867914D01*
G01X3517646Y-2846070D01*
G01X3517646Y-2832862D01*
G01X3513328Y-2811018D01*
G01X3504692Y-2797810D01*
G01X3491484Y-2793492D01*
G01X3482594Y-2793492D01*
G01X3218942Y-2374392D02*
G01X3205734Y-2378710D01*
G01X3197098Y-2391918D01*
G01X3192780Y-2413762D01*
G01X3192780Y-2426970D01*
G01X3197098Y-2448814D01*
G01X3205734Y-2462022D01*
G01X3218942Y-2466340D01*
G01X3227578Y-2466340D01*
G01X3240786Y-2462022D01*
G01X3249676Y-2448814D01*
G01X3253994Y-2426970D01*
G01X3253994Y-2413762D01*
G01X3249676Y-2391918D01*
G01X3240786Y-2378710D01*
G01X3227578Y-2374392D01*
G01X3218942Y-2374392D01*
G01X3284982Y-2405126D02*
G01X3333242Y-2466340D01*
G01X3333242Y-2405126D02*
G01X3284982Y-2466340D01*
G01X3368548Y-2396236D02*
G01X3368548Y-2391918D01*
G01X3372866Y-2383028D01*
G01X3377438Y-2378710D01*
G01X3386074Y-2374392D01*
G01X3403600Y-2374392D01*
G01X3412490Y-2378710D01*
G01X3416808Y-2383028D01*
G01X3421126Y-2391918D01*
G01X3421126Y-2400554D01*
G01X3416808Y-2409444D01*
G01X3407918Y-2422652D01*
G01X3364230Y-2466340D01*
G01X3425444Y-2466340D01*
G01X3517646Y-2374392D02*
G01X3473958Y-2466340D01*
G01X3456432Y-2374392D02*
G01X3517646Y-2374392D01*
G01X2646680Y-2564892D02*
G01X2646680Y-2656840D01*
G01X2681986Y-2586736D02*
G01X2681986Y-2582418D01*
G01X2686304Y-2573528D01*
G01X2690876Y-2569210D01*
G01X2699512Y-2564892D01*
G01X2717038Y-2564892D01*
G01X2725928Y-2569210D01*
G01X2730246Y-2573528D01*
G01X2734564Y-2582418D01*
G01X2734564Y-2591054D01*
G01X2730246Y-2599944D01*
G01X2721356Y-2613152D01*
G01X2677668Y-2656840D01*
G01X2738882Y-2656840D01*
G01X2835402Y-2586736D02*
G01X2831084Y-2578100D01*
G01X2822448Y-2569210D01*
G01X2813558Y-2564892D01*
G01X2796032Y-2564892D01*
G01X2787396Y-2569210D01*
G01X2778506Y-2578100D01*
G01X2774188Y-2586736D01*
G01X2769870Y-2599944D01*
G01X2769870Y-2621788D01*
G01X2774188Y-2634996D01*
G01X2778506Y-2643632D01*
G01X2787396Y-2652522D01*
G01X2796032Y-2656840D01*
G01X2813558Y-2656840D01*
G01X2822448Y-2652522D01*
G01X2831084Y-2643632D01*
G01X2835402Y-2634996D01*
G01X2999486Y-2564892D02*
G01X2964434Y-2656840D01*
G01X2999486Y-2564892D02*
G01X3034284Y-2656840D01*
G01X2977642Y-2626106D02*
G01X3021330Y-2626106D01*
G01X3117850Y-2564892D02*
G01X3117850Y-2656840D01*
G01X3117850Y-2608580D02*
G01X3108960Y-2599944D01*
G01X3100324Y-2595626D01*
G01X3087116Y-2595626D01*
G01X3078480Y-2599944D01*
G01X3069590Y-2608580D01*
G01X3065272Y-2621788D01*
G01X3065272Y-2630424D01*
G01X3069590Y-2643632D01*
G01X3078480Y-2652522D01*
G01X3087116Y-2656840D01*
G01X3100324Y-2656840D01*
G01X3108960Y-2652522D01*
G01X3117850Y-2643632D01*
G01X3201416Y-2564892D02*
G01X3201416Y-2656840D01*
G01X3201416Y-2608580D02*
G01X3192526Y-2599944D01*
G01X3183890Y-2595626D01*
G01X3170682Y-2595626D01*
G01X3162046Y-2599944D01*
G01X3153156Y-2608580D01*
G01X3148838Y-2621788D01*
G01X3148838Y-2630424D01*
G01X3153156Y-2643632D01*
G01X3162046Y-2652522D01*
G01X3170682Y-2656840D01*
G01X3183890Y-2656840D01*
G01X3192526Y-2652522D01*
G01X3201416Y-2643632D01*
G01X3232404Y-2595626D02*
G01X3232404Y-2656840D01*
G01X3232404Y-2621788D02*
G01X3236722Y-2608580D01*
G01X3245612Y-2599944D01*
G01X3254248Y-2595626D01*
G01X3267456Y-2595626D01*
G01X3298444Y-2621788D02*
G01X3351022Y-2621788D01*
G01X3351022Y-2613152D01*
G01X3346704Y-2604262D01*
G01X3342132Y-2599944D01*
G01X3333496Y-2595626D01*
G01X3320288Y-2595626D01*
G01X3311652Y-2599944D01*
G01X3302762Y-2608580D01*
G01X3298444Y-2621788D01*
G01X3298444Y-2630424D01*
G01X3302762Y-2643632D01*
G01X3311652Y-2652522D01*
G01X3320288Y-2656840D01*
G01X3333496Y-2656840D01*
G01X3342132Y-2652522D01*
G01X3351022Y-2643632D01*
G01X3430270Y-2608580D02*
G01X3425698Y-2599944D01*
G01X3412744Y-2595626D01*
G01X3399536Y-2595626D01*
G01X3386328Y-2599944D01*
G01X3382010Y-2608580D01*
G01X3386328Y-2617470D01*
G01X3395218Y-2621788D01*
G01X3417062Y-2626106D01*
G01X3425698Y-2630424D01*
G01X3430270Y-2639314D01*
G01X3430270Y-2643632D01*
G01X3425698Y-2652522D01*
G01X3412744Y-2656840D01*
G01X3399536Y-2656840D01*
G01X3386328Y-2652522D01*
G01X3382010Y-2643632D01*
G01X3509518Y-2608580D02*
G01X3504946Y-2599944D01*
G01X3491992Y-2595626D01*
G01X3478784Y-2595626D01*
G01X3465576Y-2599944D01*
G01X3461258Y-2608580D01*
G01X3465576Y-2617470D01*
G01X3474466Y-2621788D01*
G01X3496310Y-2626106D01*
G01X3504946Y-2630424D01*
G01X3509518Y-2639314D01*
G01X3509518Y-2643632D01*
G01X3504946Y-2652522D01*
G01X3491992Y-2656840D01*
G01X3478784Y-2656840D01*
G01X3465576Y-2652522D01*
G01X3461258Y-2643632D01*
G04 Text End*

G04 PolygonModel Start*
G54D10*
G01X1550861Y-2429020D02*
G01X1550861Y-2288019D01*
G01X1370140Y-2288019D02*
G01X1370140Y-2429020D01*
G01X1385380Y-2444260D02*
G01X1535621Y-2444260D01*
G01X1550861Y-2066780D02*
G01X1550861Y-2207781D01*
G01X1370140Y-2207781D02*
G01X1370140Y-2066780D01*
G01X1385380Y-2051540D02*
G01X1535621Y-2051540D01*
G01X1370140Y-2429020D02*
G03X1385380Y-2444260I15240J0D01*
G01X1535621Y-2444260D02*
G03X1550861Y-2429020I0J15240D01*
G01X1370140Y-2066780D02*
G02X1385380Y-2051540I15240J0D01*
G01X1535621Y-2051540D02*
G02X1550861Y-2066780I0J-15240D01*
G01X18070640Y-2358880D02*
G01X18070640Y-2499881D01*
G01X18251361Y-2499881D02*
G01X18251361Y-2358880D01*
G01X18236121Y-2343640D02*
G01X18085880Y-2343640D01*
G01X18070640Y-2721120D02*
G01X18070640Y-2580119D01*
G01X18251361Y-2580119D02*
G01X18251361Y-2721120D01*
G01X18236121Y-2736360D02*
G01X18085880Y-2736360D01*
G01X18251361Y-2358880D02*
G03X18236121Y-2343640I-15240J0D01*
G01X18085880Y-2343640D02*
G03X18070640Y-2358880I0J-15240D01*
G01X18251361Y-2721120D02*
G02X18236121Y-2736360I-15240J0D01*
G01X18085880Y-2736360D02*
G02X18070640Y-2721120I0J15240D01*
G01X5665661Y-2403620D02*
G01X5665661Y-2262619D01*
G01X5484940Y-2262619D02*
G01X5484940Y-2403620D01*
G01X5500180Y-2418860D02*
G01X5650421Y-2418860D01*
G01X5665661Y-2041380D02*
G01X5665661Y-2182381D01*
G01X5484940Y-2182381D02*
G01X5484940Y-2041380D01*
G01X5500180Y-2026140D02*
G01X5650421Y-2026140D01*
G01X5484940Y-2403620D02*
G03X5500180Y-2418860I15240J0D01*
G01X5650421Y-2418860D02*
G03X5665661Y-2403620I0J15240D01*
G01X5484940Y-2041380D02*
G02X5500180Y-2026140I15240J0D01*
G01X5650421Y-2026140D02*
G02X5665661Y-2041380I0J-15240D01*
G01X10161461Y-2390920D02*
G01X10161461Y-2249919D01*
G01X9980740Y-2249919D02*
G01X9980740Y-2390920D01*
G01X9995980Y-2406160D02*
G01X10146221Y-2406160D01*
G01X10161461Y-2028680D02*
G01X10161461Y-2169681D01*
G01X9980740Y-2169681D02*
G01X9980740Y-2028680D01*
G01X9995980Y-2013440D02*
G01X10146221Y-2013440D01*
G01X9980740Y-2390920D02*
G03X9995980Y-2406160I15240J0D01*
G01X10146221Y-2406160D02*
G03X10161461Y-2390920I0J15240D01*
G01X9980740Y-2028680D02*
G02X9995980Y-2013440I15240J0D01*
G01X10146221Y-2013440D02*
G02X10161461Y-2028680I0J-15240D01*
G01X14669961Y-2403620D02*
G01X14669961Y-2262619D01*
G01X14489240Y-2262619D02*
G01X14489240Y-2403620D01*
G01X14504480Y-2418860D02*
G01X14654721Y-2418860D01*
G01X14669961Y-2041380D02*
G01X14669961Y-2182381D01*
G01X14489240Y-2182381D02*
G01X14489240Y-2041380D01*
G01X14504480Y-2026140D02*
G01X14654721Y-2026140D01*
G01X14489240Y-2403620D02*
G03X14504480Y-2418860I15240J0D01*
G01X14654721Y-2418860D02*
G03X14669961Y-2403620I0J15240D01*
G01X14489240Y-2041380D02*
G02X14504480Y-2026140I15240J0D01*
G01X14654721Y-2026140D02*
G02X14669961Y-2041380I0J-15240D01*
G01X19203861Y-2403620D02*
G01X19203861Y-2262619D01*
G01X19023140Y-2262619D02*
G01X19023140Y-2403620D01*
G01X19038380Y-2418860D02*
G01X19188621Y-2418860D01*
G01X19203861Y-2041380D02*
G01X19203861Y-2182381D01*
G01X19023140Y-2182381D02*
G01X19023140Y-2041380D01*
G01X19038380Y-2026140D02*
G01X19188621Y-2026140D01*
G01X19023140Y-2403620D02*
G03X19038380Y-2418860I15240J0D01*
G01X19188621Y-2418860D02*
G03X19203861Y-2403620I0J15240D01*
G01X19023140Y-2041380D02*
G02X19038380Y-2026140I15240J0D01*
G01X19188621Y-2026140D02*
G02X19203861Y-2041380I0J-15240D01*
G01X23699661Y-2390920D02*
G01X23699661Y-2249919D01*
G01X23518940Y-2249919D02*
G01X23518940Y-2390920D01*
G01X23534180Y-2406160D02*
G01X23684421Y-2406160D01*
G01X23699661Y-2028680D02*
G01X23699661Y-2169681D01*
G01X23518940Y-2169681D02*
G01X23518940Y-2028680D01*
G01X23534180Y-2013440D02*
G01X23684421Y-2013440D01*
G01X23518940Y-2390920D02*
G03X23534180Y-2406160I15240J0D01*
G01X23684421Y-2406160D02*
G03X23699661Y-2390920I0J15240D01*
G01X23518940Y-2028680D02*
G02X23534180Y-2013440I15240J0D01*
G01X23684421Y-2013440D02*
G02X23699661Y-2028680I0J-15240D01*
G01X28170061Y-2403620D02*
G01X28170061Y-2262619D01*
G01X27989340Y-2262619D02*
G01X27989340Y-2403620D01*
G01X28004580Y-2418860D02*
G01X28154821Y-2418860D01*
G01X28170061Y-2041380D02*
G01X28170061Y-2182381D01*
G01X27989340Y-2182381D02*
G01X27989340Y-2041380D01*
G01X28004580Y-2026140D02*
G01X28154821Y-2026140D01*
G01X27989340Y-2403620D02*
G03X28004580Y-2418860I15240J0D01*
G01X28154821Y-2418860D02*
G03X28170061Y-2403620I0J15240D01*
G01X27989340Y-2041380D02*
G02X28004580Y-2026140I15240J0D01*
G01X28154821Y-2026140D02*
G02X28170061Y-2041380I0J-15240D01*
G01X32691261Y-2390920D02*
G01X32691261Y-2249919D01*
G01X32510540Y-2249919D02*
G01X32510540Y-2390920D01*
G01X32525780Y-2406160D02*
G01X32676021Y-2406160D01*
G01X32691261Y-2028680D02*
G01X32691261Y-2169681D01*
G01X32510540Y-2169681D02*
G01X32510540Y-2028680D01*
G01X32525780Y-2013440D02*
G01X32676021Y-2013440D01*
G01X32510540Y-2390920D02*
G03X32525780Y-2406160I15240J0D01*
G01X32676021Y-2406160D02*
G03X32691261Y-2390920I0J15240D01*
G01X32510540Y-2028680D02*
G02X32525780Y-2013440I15240J0D01*
G01X32676021Y-2013440D02*
G02X32691261Y-2028680I0J-15240D01*
G01X2719261Y-3673620D02*
G01X2719261Y-3532619D01*
G01X2538540Y-3532619D02*
G01X2538540Y-3673620D01*
G01X2553780Y-3688860D02*
G01X2704021Y-3688860D01*
G01X2719261Y-3311380D02*
G01X2719261Y-3452381D01*
G01X2538540Y-3452381D02*
G01X2538540Y-3311380D01*
G01X2553780Y-3296140D02*
G01X2704021Y-3296140D01*
G01X2538540Y-3673620D02*
G03X2553780Y-3688860I15240J0D01*
G01X2704021Y-3688860D02*
G03X2719261Y-3673620I0J15240D01*
G01X2538540Y-3311380D02*
G02X2553780Y-3296140I15240J0D01*
G01X2704021Y-3296140D02*
G02X2719261Y-3311380I0J-15240D01*
G01X7176961Y-3673620D02*
G01X7176961Y-3532619D01*
G01X6996240Y-3532619D02*
G01X6996240Y-3673620D01*
G01X7011480Y-3688860D02*
G01X7161721Y-3688860D01*
G01X7176961Y-3311380D02*
G01X7176961Y-3452381D01*
G01X6996240Y-3452381D02*
G01X6996240Y-3311380D01*
G01X7011480Y-3296140D02*
G01X7161721Y-3296140D01*
G01X6996240Y-3673620D02*
G03X7011480Y-3688860I15240J0D01*
G01X7161721Y-3688860D02*
G03X7176961Y-3673620I0J15240D01*
G01X6996240Y-3311380D02*
G02X7011480Y-3296140I15240J0D01*
G01X7161721Y-3296140D02*
G02X7176961Y-3311380I0J-15240D01*
G01X11710861Y-3673620D02*
G01X11710861Y-3532619D01*
G01X11530140Y-3532619D02*
G01X11530140Y-3673620D01*
G01X11545380Y-3688860D02*
G01X11695621Y-3688860D01*
G01X11710861Y-3311380D02*
G01X11710861Y-3452381D01*
G01X11530140Y-3452381D02*
G01X11530140Y-3311380D01*
G01X11545380Y-3296140D02*
G01X11695621Y-3296140D01*
G01X11530140Y-3673620D02*
G03X11545380Y-3688860I15240J0D01*
G01X11695621Y-3688860D02*
G03X11710861Y-3673620I0J15240D01*
G01X11530140Y-3311380D02*
G02X11545380Y-3296140I15240J0D01*
G01X11695621Y-3296140D02*
G02X11710861Y-3311380I0J-15240D01*
G01X16232061Y-3737120D02*
G01X16232061Y-3596119D01*
G01X16051340Y-3596119D02*
G01X16051340Y-3737120D01*
G01X16066580Y-3752360D02*
G01X16216821Y-3752360D01*
G01X16232061Y-3374880D02*
G01X16232061Y-3515881D01*
G01X16051340Y-3515881D02*
G01X16051340Y-3374880D01*
G01X16066580Y-3359640D02*
G01X16216821Y-3359640D01*
G01X16051340Y-3737120D02*
G03X16066580Y-3752360I15240J0D01*
G01X16216821Y-3752360D02*
G03X16232061Y-3737120I0J15240D01*
G01X16051340Y-3374880D02*
G02X16066580Y-3359640I15240J0D01*
G01X16216821Y-3359640D02*
G02X16232061Y-3374880I0J-15240D01*
G01X20753261Y-3686320D02*
G01X20753261Y-3545319D01*
G01X20572540Y-3545319D02*
G01X20572540Y-3686320D01*
G01X20587780Y-3701560D02*
G01X20738021Y-3701560D01*
G01X20753261Y-3324080D02*
G01X20753261Y-3465081D01*
G01X20572540Y-3465081D02*
G01X20572540Y-3324080D01*
G01X20587780Y-3308840D02*
G01X20738021Y-3308840D01*
G01X20572540Y-3686320D02*
G03X20587780Y-3701560I15240J0D01*
G01X20738021Y-3701560D02*
G03X20753261Y-3686320I0J15240D01*
G01X20572540Y-3324080D02*
G02X20587780Y-3308840I15240J0D01*
G01X20738021Y-3308840D02*
G02X20753261Y-3324080I0J-15240D01*
G01X25210961Y-3673620D02*
G01X25210961Y-3532619D01*
G01X25030240Y-3532619D02*
G01X25030240Y-3673620D01*
G01X25045480Y-3688860D02*
G01X25195721Y-3688860D01*
G01X25210961Y-3311380D02*
G01X25210961Y-3452381D01*
G01X25030240Y-3452381D02*
G01X25030240Y-3311380D01*
G01X25045480Y-3296140D02*
G01X25195721Y-3296140D01*
G01X25030240Y-3673620D02*
G03X25045480Y-3688860I15240J0D01*
G01X25195721Y-3688860D02*
G03X25210961Y-3673620I0J15240D01*
G01X25030240Y-3311380D02*
G02X25045480Y-3296140I15240J0D01*
G01X25195721Y-3296140D02*
G02X25210961Y-3311380I0J-15240D01*
G01X29744861Y-3673620D02*
G01X29744861Y-3532619D01*
G01X29564140Y-3532619D02*
G01X29564140Y-3673620D01*
G01X29579380Y-3688860D02*
G01X29729621Y-3688860D01*
G01X29744861Y-3311380D02*
G01X29744861Y-3452381D01*
G01X29564140Y-3452381D02*
G01X29564140Y-3311380D01*
G01X29579380Y-3296140D02*
G01X29729621Y-3296140D01*
G01X29564140Y-3673620D02*
G03X29579380Y-3688860I15240J0D01*
G01X29729621Y-3688860D02*
G03X29744861Y-3673620I0J15240D01*
G01X29564140Y-3311380D02*
G02X29579380Y-3296140I15240J0D01*
G01X29729621Y-3296140D02*
G02X29744861Y-3311380I0J-15240D01*
G01X33072261Y-3660920D02*
G01X33072261Y-3519919D01*
G01X32891540Y-3519919D02*
G01X32891540Y-3660920D01*
G01X32906780Y-3676160D02*
G01X33057021Y-3676160D01*
G01X33072261Y-3298680D02*
G01X33072261Y-3439681D01*
G01X32891540Y-3439681D02*
G01X32891540Y-3298680D01*
G01X32906780Y-3283440D02*
G01X33057021Y-3283440D01*
G01X32891540Y-3660920D02*
G03X32906780Y-3676160I15240J0D01*
G01X33057021Y-3676160D02*
G03X33072261Y-3660920I0J15240D01*
G01X32891540Y-3298680D02*
G02X32906780Y-3283440I15240J0D01*
G01X33057021Y-3283440D02*
G02X33072261Y-3298680I0J-15240D01*
G54D13*
G01X647700Y-1676400D02*
G01X393700Y-1676400D01*
G01X393700Y-1676400D02*
G01X393700Y-2184400D01*
G01X393700Y-2184400D02*
G01X647700Y-2184400D01*
G01X647700Y-2184400D02*
G01X647700Y-1676400D01*
G01X88900Y-2895600D02*
G01X342900Y-2895600D01*
G01X342900Y-2895600D02*
G01X342900Y-2387600D01*
G01X342900Y-2387600D02*
G01X88900Y-2387600D01*
G01X88900Y-2387600D02*
G01X88900Y-2895600D01*
G01X1034903Y-2171606D02*
G01X1034903Y-2085205D01*
G01X1034903Y-2085205D02*
G01X1134905Y-2085205D01*
G01X1174902Y-2266602D02*
G01X1174902Y-2203808D01*
G01X1034903Y-2385205D02*
G01X1034903Y-2298804D01*
G01X1034903Y-2385205D02*
G01X1134905Y-2385205D01*
G01X5149703Y-2158906D02*
G01X5149703Y-2072505D01*
G01X5149703Y-2072505D02*
G01X5249705Y-2072505D01*
G01X5289702Y-2253902D02*
G01X5289702Y-2191108D01*
G01X5149703Y-2372505D02*
G01X5149703Y-2286104D01*
G01X5149703Y-2372505D02*
G01X5249705Y-2372505D01*
G01X9645503Y-2146206D02*
G01X9645503Y-2059805D01*
G01X9645503Y-2059805D02*
G01X9745505Y-2059805D01*
G01X9785502Y-2241202D02*
G01X9785502Y-2178408D01*
G01X9645503Y-2359805D02*
G01X9645503Y-2273404D01*
G01X9645503Y-2359805D02*
G01X9745505Y-2359805D01*
G01X14141303Y-2146206D02*
G01X14141303Y-2059805D01*
G01X14141303Y-2059805D02*
G01X14241305Y-2059805D01*
G01X14281302Y-2241202D02*
G01X14281302Y-2178408D01*
G01X14141303Y-2359805D02*
G01X14141303Y-2273404D01*
G01X14141303Y-2359805D02*
G01X14241305Y-2359805D01*
G01X18649803Y-2158906D02*
G01X18649803Y-2072505D01*
G01X18649803Y-2072505D02*
G01X18749805Y-2072505D01*
G01X18789802Y-2253902D02*
G01X18789802Y-2191108D01*
G01X18649803Y-2372505D02*
G01X18649803Y-2286104D01*
G01X18649803Y-2372505D02*
G01X18749805Y-2372505D01*
G01X23120203Y-2146206D02*
G01X23120203Y-2059805D01*
G01X23120203Y-2059805D02*
G01X23220205Y-2059805D01*
G01X23260202Y-2241202D02*
G01X23260202Y-2178408D01*
G01X23120203Y-2359805D02*
G01X23120203Y-2273404D01*
G01X23120203Y-2359805D02*
G01X23220205Y-2359805D01*
G01X27654103Y-2146206D02*
G01X27654103Y-2059805D01*
G01X27654103Y-2059805D02*
G01X27754105Y-2059805D01*
G01X27794102Y-2241202D02*
G01X27794102Y-2178408D01*
G01X27654103Y-2359805D02*
G01X27654103Y-2273404D01*
G01X27654103Y-2359805D02*
G01X27754105Y-2359805D01*
G01X32143719Y-2145693D02*
G01X32143719Y-2059292D01*
G01X32143719Y-2059292D02*
G01X32243721Y-2059292D01*
G01X32283719Y-2240689D02*
G01X32283719Y-2177895D01*
G01X32143719Y-2359292D02*
G01X32143719Y-2272891D01*
G01X32143719Y-2359292D02*
G01X32243721Y-2359292D01*
G01X1801581Y-3721092D02*
G01X1790700Y-3721092D01*
G01X2121581Y-3721092D02*
G01X1967812Y-3721092D01*
G01X2287808Y-3213092D02*
G01X2298700Y-3213092D01*
G01X2298700Y-3213092D02*
G01X2298700Y-3721092D01*
G01X2298700Y-3721092D02*
G01X2287808Y-3721092D01*
G01X1967812Y-3213092D02*
G01X2121581Y-3213092D01*
G01X1790700Y-3721092D02*
G01X1790700Y-3213092D01*
G01X1790700Y-3213092D02*
G01X1801581Y-3213092D01*
G36*
G01X2353231Y-3256953D02*
G01X2353231Y-3189643D01*
G01X2280841Y-3189643D01*
G01X2353231Y-3256953D01*
G37*
G01X6284681Y-3733792D02*
G01X6273800Y-3733792D01*
G01X6604681Y-3733792D02*
G01X6450912Y-3733792D01*
G01X6770908Y-3225792D02*
G01X6781800Y-3225792D01*
G01X6781800Y-3225792D02*
G01X6781800Y-3733792D01*
G01X6781800Y-3733792D02*
G01X6770908Y-3733792D01*
G01X6450912Y-3225792D02*
G01X6604681Y-3225792D01*
G01X6273800Y-3733792D02*
G01X6273800Y-3225792D01*
G01X6273800Y-3225792D02*
G01X6284681Y-3225792D01*
G36*
G01X6836331Y-3269653D02*
G01X6836331Y-3202343D01*
G01X6763941Y-3202343D01*
G01X6836331Y-3269653D01*
G37*
G01X10793181Y-3746492D02*
G01X10782300Y-3746492D01*
G01X11113181Y-3746492D02*
G01X10959412Y-3746492D01*
G01X11279408Y-3238492D02*
G01X11290300Y-3238492D01*
G01X11290300Y-3238492D02*
G01X11290300Y-3746492D01*
G01X11290300Y-3746492D02*
G01X11279408Y-3746492D01*
G01X10959412Y-3238492D02*
G01X11113181Y-3238492D01*
G01X10782300Y-3746492D02*
G01X10782300Y-3238492D01*
G01X10782300Y-3238492D02*
G01X10793181Y-3238492D01*
G36*
G01X11344831Y-3282353D02*
G01X11344831Y-3215043D01*
G01X11272441Y-3215043D01*
G01X11344831Y-3282353D01*
G37*
G01X15288981Y-3759192D02*
G01X15278100Y-3759192D01*
G01X15608981Y-3759192D02*
G01X15455212Y-3759192D01*
G01X15775208Y-3251192D02*
G01X15786100Y-3251192D01*
G01X15786100Y-3251192D02*
G01X15786100Y-3759192D01*
G01X15786100Y-3759192D02*
G01X15775208Y-3759192D01*
G01X15455212Y-3251192D02*
G01X15608981Y-3251192D01*
G01X15278100Y-3759192D02*
G01X15278100Y-3251192D01*
G01X15278100Y-3251192D02*
G01X15288981Y-3251192D01*
G36*
G01X15840631Y-3295053D02*
G01X15840631Y-3227743D01*
G01X15768241Y-3227743D01*
G01X15840631Y-3295053D01*
G37*
G01X19797481Y-3759192D02*
G01X19786600Y-3759192D01*
G01X20117481Y-3759192D02*
G01X19963712Y-3759192D01*
G01X20283708Y-3251192D02*
G01X20294600Y-3251192D01*
G01X20294600Y-3251192D02*
G01X20294600Y-3759192D01*
G01X20294600Y-3759192D02*
G01X20283708Y-3759192D01*
G01X19963712Y-3251192D02*
G01X20117481Y-3251192D01*
G01X19786600Y-3759192D02*
G01X19786600Y-3251192D01*
G01X19786600Y-3251192D02*
G01X19797481Y-3251192D01*
G36*
G01X20349131Y-3295053D02*
G01X20349131Y-3227743D01*
G01X20276741Y-3227743D01*
G01X20349131Y-3295053D01*
G37*
G01X24305981Y-3733792D02*
G01X24295100Y-3733792D01*
G01X24625981Y-3733792D02*
G01X24472212Y-3733792D01*
G01X24792208Y-3225792D02*
G01X24803100Y-3225792D01*
G01X24803100Y-3225792D02*
G01X24803100Y-3733792D01*
G01X24803100Y-3733792D02*
G01X24792208Y-3733792D01*
G01X24472212Y-3225792D02*
G01X24625981Y-3225792D01*
G01X24295100Y-3733792D02*
G01X24295100Y-3225792D01*
G01X24295100Y-3225792D02*
G01X24305981Y-3225792D01*
G36*
G01X24857631Y-3269653D02*
G01X24857631Y-3202343D01*
G01X24785241Y-3202343D01*
G01X24857631Y-3269653D01*
G37*
G01X28827181Y-3746492D02*
G01X28816300Y-3746492D01*
G01X29147181Y-3746492D02*
G01X28993412Y-3746492D01*
G01X29313408Y-3238492D02*
G01X29324300Y-3238492D01*
G01X29324300Y-3238492D02*
G01X29324300Y-3746492D01*
G01X29324300Y-3746492D02*
G01X29313408Y-3746492D01*
G01X28993412Y-3238492D02*
G01X29147181Y-3238492D01*
G01X28816300Y-3746492D02*
G01X28816300Y-3238492D01*
G01X28816300Y-3238492D02*
G01X28827181Y-3238492D01*
G36*
G01X29378831Y-3282353D02*
G01X29378831Y-3215043D01*
G01X29306441Y-3215043D01*
G01X29378831Y-3282353D01*
G37*
G01X33322981Y-3733792D02*
G01X33312100Y-3733792D01*
G01X33642981Y-3733792D02*
G01X33489212Y-3733792D01*
G01X33809208Y-3225792D02*
G01X33820100Y-3225792D01*
G01X33820100Y-3225792D02*
G01X33820100Y-3733792D01*
G01X33820100Y-3733792D02*
G01X33809208Y-3733792D01*
G01X33489212Y-3225792D02*
G01X33642981Y-3225792D01*
G01X33312100Y-3733792D02*
G01X33312100Y-3225792D01*
G01X33312100Y-3225792D02*
G01X33322981Y-3225792D01*
G36*
G01X33874631Y-3269653D02*
G01X33874631Y-3202343D01*
G01X33802241Y-3202343D01*
G01X33874631Y-3269653D01*
G37*
G01X16087598Y-2163762D02*
G01X16087598Y-2070951D01*
G01X16087598Y-2070951D02*
G01X17897602Y-2070951D01*
G01X17897602Y-2070951D02*
G01X17897602Y-2763761D01*
G01X17897602Y-2763761D02*
G01X16087598Y-2763761D01*
G01X16087598Y-2763761D02*
G01X16087598Y-2163762D01*
G54D14*
G01X16187674Y-2633688D02*
G03X16187928Y-2693687I254J-29999D01*
G03X16188182Y-2633688I0J30000D01*
G54D16*
G01X16082518Y-2948648D02*
G03X16082645Y-2978650I127J-15001D01*
G03X16082772Y-2948648I0J15001D01*
G54D13*
G01X647700Y-3175000D02*
G01X393700Y-3175000D01*
G01X393700Y-3175000D02*
G01X393700Y-3683000D01*
G01X393700Y-3683000D02*
G01X647700Y-3683000D01*
G01X647700Y-3683000D02*
G01X647700Y-3175000D01*
G54D10*
G01X4435480Y-1876791D02*
G01X4306987Y-1876791D01*
G01X4306987Y-1876791D02*
G01X4306987Y-2060209D01*
G01X4306987Y-2060209D02*
G01X4435480Y-2060209D01*
G01X4530720Y-1876791D02*
G01X4659213Y-1876791D01*
G01X4659213Y-1876791D02*
G01X4659213Y-2060209D01*
G01X4659213Y-2060209D02*
G01X4530720Y-2060209D01*
G01X3940180Y-1610091D02*
G01X3811687Y-1610091D01*
G01X3811687Y-1610091D02*
G01X3811687Y-1793509D01*
G01X3811687Y-1793509D02*
G01X3940180Y-1793509D01*
G01X4035420Y-1610091D02*
G01X4163913Y-1610091D01*
G01X4163913Y-1610091D02*
G01X4163913Y-1793509D01*
G01X4163913Y-1793509D02*
G01X4035420Y-1793509D01*
G01X3336920Y-2085609D02*
G01X3465413Y-2085609D01*
G01X3465413Y-2085609D02*
G01X3465413Y-1902191D01*
G01X3465413Y-1902191D02*
G01X3336920Y-1902191D01*
G01X3241680Y-2085609D02*
G01X3113187Y-2085609D01*
G01X3113187Y-2085609D02*
G01X3113187Y-1902191D01*
G01X3113187Y-1902191D02*
G01X3241680Y-1902191D01*
G54D13*
G01X4142999Y-2346201D02*
G01X4142999Y-2886199D01*
G01X3604003Y-2346201D02*
G01X4142999Y-2346201D01*
G01X3604003Y-2886199D02*
G01X4142999Y-2886199D01*
G01X3604001Y-2346201D02*
G01X3604001Y-2886199D01*
G01X3959860Y-2644140D02*
G01X4046220Y-2644140D01*
G01X4046220Y-2735580D01*
G01X3959860Y-2735580D01*
G01X3959860Y-2644140D01*
G01X3959860Y-2443480D02*
G01X4046220Y-2443480D01*
G01X4046220Y-2786380D01*
G01X3959860Y-2786380D01*
G01X3959860Y-2443480D01*
G01X3830320Y-2644140D02*
G01X3916680Y-2644140D01*
G01X3916680Y-2735580D01*
G01X3830320Y-2735580D01*
G01X3830320Y-2644140D01*
G01X3830320Y-2443480D02*
G01X3916680Y-2443480D01*
G01X3916680Y-2786380D01*
G01X3830320Y-2786380D01*
G01X3830320Y-2443480D01*
G01X3703320Y-2644140D02*
G01X3789680Y-2644140D01*
G01X3789680Y-2735580D01*
G01X3703320Y-2735580D01*
G01X3703320Y-2644140D01*
G01X3703320Y-2443480D02*
G01X3789680Y-2443480D01*
G01X3789680Y-2786380D01*
G01X3703320Y-2786380D01*
G01X3703320Y-2443480D01*
G01X355600Y-3175000D02*
G01X101600Y-3175000D01*
G01X101600Y-3175000D02*
G01X101600Y-3683000D01*
G01X101600Y-3683000D02*
G01X355600Y-3683000D01*
G01X355600Y-3683000D02*
G01X355600Y-3175000D01*
G01X330200Y-1676400D02*
G01X76200Y-1676400D01*
G01X76200Y-1676400D02*
G01X76200Y-2184400D01*
G01X76200Y-2184400D02*
G01X330200Y-2184400D01*
G01X330200Y-2184400D02*
G01X330200Y-1676400D01*
G54D10*
G01X1055561Y-3610120D02*
G01X1055561Y-3469119D01*
G01X874840Y-3469119D02*
G01X874840Y-3610120D01*
G01X890080Y-3625360D02*
G01X1040321Y-3625360D01*
G01X1055561Y-3247880D02*
G01X1055561Y-3388881D01*
G01X874840Y-3388881D02*
G01X874840Y-3247880D01*
G01X890080Y-3232640D02*
G01X1040321Y-3232640D01*
G01X874840Y-3610120D02*
G03X890080Y-3625360I15240J0D01*
G01X1040321Y-3625360D02*
G03X1055561Y-3610120I0J15240D01*
G01X874840Y-3247880D02*
G02X890080Y-3232640I15240J0D01*
G01X1040321Y-3232640D02*
G02X1055561Y-3247880I0J-15240D01*
G01X2252421Y-2199660D02*
G01X2348309Y-2199660D01*
G01X2348309Y-2199660D02*
G01X2348309Y-2067540D01*
G01X2348309Y-2067540D02*
G01X2252421Y-2067540D01*
G01X2167179Y-2199660D02*
G01X2071291Y-2199660D01*
G01X2071291Y-2199660D02*
G01X2071291Y-2067540D01*
G01X2071291Y-2067540D02*
G01X2167179Y-2067540D01*
G01X2252421Y-1983760D02*
G01X2348309Y-1983760D01*
G01X2348309Y-1983760D02*
G01X2348309Y-1851640D01*
G01X2348309Y-1851640D02*
G01X2252421Y-1851640D01*
G01X2167179Y-1983760D02*
G01X2071291Y-1983760D01*
G01X2071291Y-1983760D02*
G01X2071291Y-1851640D01*
G01X2071291Y-1851640D02*
G01X2167179Y-1851640D01*

G04 Circle Start*
G54D13*
G01X3642360Y-2992120D02*
G03X3672840Y-2992120I15240J0D01*
G03X3642360Y-2992120I-15240J0D01*
G04 Circle End*

M02*

