G04 Layer: TopSolderMaskLayer*
G04 EasyEDA Pro v2.2.45.4, 2026-01-27 00:14:52*
G04 Gerber Generator version 0.3*
G04 Scale: 100 percent, Rotated: No, Reflected: No*
G04 Dimensions in millimeters*
G04 Leading zeros omitted, absolute positions, 4 integers and 5 decimals*
G04 Generated by one-click*
%FSLAX45Y45*%
%MOMM*%
%AMRoundRect*1,1,$1,$2,$3*1,1,$1,$4,$5*1,1,$1,0-$2,0-$3*1,1,$1,0-$4,0-$5*20,1,$1,$2,$3,$4,$5,0*20,1,$1,$4,$5,0-$2,0-$3,0*20,1,$1,0-$2,0-$3,0-$4,0-$5,0*20,1,$1,0-$4,0-$5,$2,$3,0*4,1,4,$2,$3,$4,$5,0-$2,0-$3,0-$4,0-$5,$2,$3,0*%
%ADD10RoundRect,0.09495X-0.67833X-0.70833X-0.67833X0.70833*%
%ADD11C,1.6*%
%ADD12RoundRect,0.09164X-0.50518X0.40518X0.50518X0.40518*%
%ADD13RoundRect,0.09288X-0.60357X-0.80357X-0.60357X0.80357*%
%ADD14O,0.702X2.402*%
%ADD15C,0.602*%
%ADD16RoundRect,0.09387X-0.57013X0.69237X0.57013X0.69237*%
%ADD17RoundRect,0.0957X-0.38539X-0.6404X-0.38539X0.6404*%
%ADD18RoundRect,0.09121X-0.38539X-0.6404X-0.38539X0.6404*%
%ADD19RoundRect,0.09138X-0.40835X0.43711X0.40835X0.43711*%
G75*


G04 Pad Start*
G54D10*
G01X1460500Y-2347900D03*
G01X1460500Y-2147900D03*
G01X18161000Y-2440000D03*
G01X18161000Y-2640000D03*
G01X5575300Y-2322500D03*
G01X5575300Y-2122500D03*
G01X10071100Y-2309800D03*
G01X10071100Y-2109800D03*
G01X14579600Y-2322500D03*
G01X14579600Y-2122500D03*
G01X19113500Y-2322500D03*
G01X19113500Y-2122500D03*
G01X23609300Y-2309800D03*
G01X23609300Y-2109800D03*
G01X28079700Y-2322500D03*
G01X28079700Y-2122500D03*
G01X32600900Y-2309800D03*
G01X32600900Y-2109800D03*
G01X2628900Y-3592500D03*
G01X2628900Y-3392500D03*
G01X7086600Y-3592500D03*
G01X7086600Y-3392500D03*
G01X11620500Y-3592500D03*
G01X11620500Y-3392500D03*
G01X16141700Y-3656000D03*
G01X16141700Y-3456000D03*
G01X20662900Y-3605200D03*
G01X20662900Y-3405200D03*
G01X25120600Y-3592500D03*
G01X25120600Y-3392500D03*
G01X29654500Y-3592500D03*
G01X29654500Y-3392500D03*
G01X32981900Y-3579800D03*
G01X32981900Y-3379800D03*
G54D11*
G01X520700Y-2057400D03*
G01X520700Y-1803400D03*
G01X215900Y-2514600D03*
G01X215900Y-2768600D03*
G54D12*
G01X1219899Y-2140204D03*
G01X989902Y-2235200D03*
G01X1219899Y-2330196D03*
G01X5334699Y-2127504D03*
G01X5104702Y-2222500D03*
G01X5334699Y-2317496D03*
G01X9830499Y-2114804D03*
G01X9600502Y-2209800D03*
G01X9830499Y-2304796D03*
G01X14326299Y-2114804D03*
G01X14096302Y-2209800D03*
G01X14326299Y-2304796D03*
G01X18834799Y-2127504D03*
G01X18604802Y-2222500D03*
G01X18834799Y-2317496D03*
G01X23305199Y-2114804D03*
G01X23075202Y-2209800D03*
G01X23305199Y-2304796D03*
G01X27839099Y-2114804D03*
G01X27609102Y-2209800D03*
G01X27839099Y-2304796D03*
G01X32328715Y-2114291D03*
G01X32098718Y-2209287D03*
G01X32328715Y-2304283D03*
G54D13*
G01X1879689Y-3702101D03*
G01X2209711Y-3702101D03*
G01X2209711Y-3232099D03*
G01X1879689Y-3232099D03*
G01X6362789Y-3714801D03*
G01X6692811Y-3714801D03*
G01X6692811Y-3244799D03*
G01X6362789Y-3244799D03*
G01X10871289Y-3727501D03*
G01X11201311Y-3727501D03*
G01X11201311Y-3257499D03*
G01X10871289Y-3257499D03*
G01X15367089Y-3740201D03*
G01X15697111Y-3740201D03*
G01X15697111Y-3270199D03*
G01X15367089Y-3270199D03*
G01X19875589Y-3740201D03*
G01X20205611Y-3740201D03*
G01X20205611Y-3270199D03*
G01X19875589Y-3270199D03*
G01X24384089Y-3714801D03*
G01X24714111Y-3714801D03*
G01X24714111Y-3244799D03*
G01X24384089Y-3244799D03*
G01X28905289Y-3727501D03*
G01X29235311Y-3727501D03*
G01X29235311Y-3257499D03*
G01X28905289Y-3257499D03*
G01X33401089Y-3714801D03*
G01X33731111Y-3714801D03*
G01X33731111Y-3244799D03*
G01X33401089Y-3244799D03*
G54D14*
G01X16167100Y-2918752D03*
G01X16294100Y-2918752D03*
G01X16421100Y-2918752D03*
G01X16548100Y-2918752D03*
G01X16675100Y-2918752D03*
G01X16802100Y-2918752D03*
G01X16929100Y-2918752D03*
G01X17056100Y-2918752D03*
G01X17183100Y-2918752D03*
G01X17310100Y-2918752D03*
G01X17437100Y-2918752D03*
G01X17564100Y-2918752D03*
G01X17691100Y-2918752D03*
G01X17818100Y-2918752D03*
G01X16167100Y-1907248D03*
G01X16294100Y-1907248D03*
G01X16421100Y-1907248D03*
G01X16548100Y-1907248D03*
G01X16675100Y-1907248D03*
G01X16802100Y-1907248D03*
G01X16929100Y-1907248D03*
G01X17056100Y-1907248D03*
G01X17183100Y-1907248D03*
G01X17310100Y-1907248D03*
G01X17437100Y-1907248D03*
G01X17564100Y-1907248D03*
G01X17691100Y-1907248D03*
G01X17818100Y-1907248D03*
G54D11*
G01X520700Y-3556000D03*
G01X520700Y-3302000D03*
G54D15*
G01X3682498Y-2020707D03*
G01X3886200Y-2019300D03*
G01X4076198Y-2030207D03*
G54D16*
G01X4383100Y-1968500D03*
G01X4583100Y-1968500D03*
G01X3887800Y-1701800D03*
G01X4087800Y-1701800D03*
G01X3389300Y-1993900D03*
G01X3189300Y-1993900D03*
G54D18*
G01X4000500Y-2234692D03*
G01X4000500Y-2997708D03*
G01X3873500Y-2997708D03*
G01X3873500Y-2234692D03*
G01X3746500Y-2234692D03*
G01X3746500Y-2997708D03*
G54D11*
G01X228600Y-3556000D03*
G01X228600Y-3302000D03*
G01X203200Y-2057400D03*
G01X203200Y-1803400D03*
G54D10*
G01X965200Y-3529000D03*
G01X965200Y-3329000D03*
G54D19*
G01X2285136Y-2133600D03*
G01X2134464Y-2133600D03*
G01X2285136Y-1917700D03*
G01X2134464Y-1917700D03*
G04 Pad End*

M02*

