G04 Layer: TopLayer*
G04 EasyEDA Pro v2.2.45.4, 2026-01-27 00:14:52*
G04 Gerber Generator version 0.3*
G04 Scale: 100 percent, Rotated: No, Reflected: No*
G04 Dimensions in millimeters*
G04 Leading zeros omitted, absolute positions, 4 integers and 5 decimals*
G04 Generated by one-click*
%FSLAX45Y45*%
%MOMM*%
%ADD10R,1.35001X1.41*%
%ADD11C,1.5*%
%ADD12R,1.0X0.8*%
%ADD13R,1.2X1.6*%
%ADD14O,0.6X2.3*%
%ADD15C,0.5*%
%ADD16R,1.13254X1.37701*%
%ADD17R,0.7698X1.27*%
%ADD18R,0.75999X1.27*%
%ADD19R,0.80648X0.86401*%
%ADD20C,0.61*%
%ADD21C,0.7*%
%ADD22C,0.254*%
G75*


G04 Pad Start*
G54D10*
G01X1460500Y-2347900D03*
G01X1460500Y-2147900D03*
G01X18161000Y-2440000D03*
G01X18161000Y-2640000D03*
G01X5575300Y-2322500D03*
G01X5575300Y-2122500D03*
G01X10071100Y-2309800D03*
G01X10071100Y-2109800D03*
G01X14579600Y-2322500D03*
G01X14579600Y-2122500D03*
G01X19113500Y-2322500D03*
G01X19113500Y-2122500D03*
G01X23609300Y-2309800D03*
G01X23609300Y-2109800D03*
G01X28079700Y-2322500D03*
G01X28079700Y-2122500D03*
G01X32600900Y-2309800D03*
G01X32600900Y-2109800D03*
G01X2628900Y-3592500D03*
G01X2628900Y-3392500D03*
G01X7086600Y-3592500D03*
G01X7086600Y-3392500D03*
G01X11620500Y-3592500D03*
G01X11620500Y-3392500D03*
G01X16141700Y-3656000D03*
G01X16141700Y-3456000D03*
G01X20662900Y-3605200D03*
G01X20662900Y-3405200D03*
G01X25120600Y-3592500D03*
G01X25120600Y-3392500D03*
G01X29654500Y-3592500D03*
G01X29654500Y-3392500D03*
G01X32981900Y-3579800D03*
G01X32981900Y-3379800D03*
G54D11*
G01X520700Y-2057400D03*
G01X520700Y-1803400D03*
G01X215900Y-2514600D03*
G01X215900Y-2768600D03*
G54D12*
G01X1219899Y-2140204D03*
G01X989902Y-2235200D03*
G01X1219899Y-2330196D03*
G01X5334699Y-2127504D03*
G01X5104702Y-2222500D03*
G01X5334699Y-2317496D03*
G01X9830499Y-2114804D03*
G01X9600502Y-2209800D03*
G01X9830499Y-2304796D03*
G01X14326299Y-2114804D03*
G01X14096302Y-2209800D03*
G01X14326299Y-2304796D03*
G01X18834799Y-2127504D03*
G01X18604802Y-2222500D03*
G01X18834799Y-2317496D03*
G01X23305199Y-2114804D03*
G01X23075202Y-2209800D03*
G01X23305199Y-2304796D03*
G01X27839099Y-2114804D03*
G01X27609102Y-2209800D03*
G01X27839099Y-2304796D03*
G01X32328715Y-2114291D03*
G01X32098718Y-2209287D03*
G01X32328715Y-2304283D03*
G54D13*
G01X1879689Y-3702101D03*
G01X2209711Y-3702101D03*
G01X2209711Y-3232099D03*
G01X1879689Y-3232099D03*
G01X6362789Y-3714801D03*
G01X6692811Y-3714801D03*
G01X6692811Y-3244799D03*
G01X6362789Y-3244799D03*
G01X10871289Y-3727501D03*
G01X11201311Y-3727501D03*
G01X11201311Y-3257499D03*
G01X10871289Y-3257499D03*
G01X15367089Y-3740201D03*
G01X15697111Y-3740201D03*
G01X15697111Y-3270199D03*
G01X15367089Y-3270199D03*
G01X19875589Y-3740201D03*
G01X20205611Y-3740201D03*
G01X20205611Y-3270199D03*
G01X19875589Y-3270199D03*
G01X24384089Y-3714801D03*
G01X24714111Y-3714801D03*
G01X24714111Y-3244799D03*
G01X24384089Y-3244799D03*
G01X28905289Y-3727501D03*
G01X29235311Y-3727501D03*
G01X29235311Y-3257499D03*
G01X28905289Y-3257499D03*
G01X33401089Y-3714801D03*
G01X33731111Y-3714801D03*
G01X33731111Y-3244799D03*
G01X33401089Y-3244799D03*
G54D14*
G01X16167100Y-2918752D03*
G01X16294100Y-2918752D03*
G01X16421100Y-2918752D03*
G01X16548100Y-2918752D03*
G01X16675100Y-2918752D03*
G01X16802100Y-2918752D03*
G01X16929100Y-2918752D03*
G01X17056100Y-2918752D03*
G01X17183100Y-2918752D03*
G01X17310100Y-2918752D03*
G01X17437100Y-2918752D03*
G01X17564100Y-2918752D03*
G01X17691100Y-2918752D03*
G01X17818100Y-2918752D03*
G01X16167100Y-1907248D03*
G01X16294100Y-1907248D03*
G01X16421100Y-1907248D03*
G01X16548100Y-1907248D03*
G01X16675100Y-1907248D03*
G01X16802100Y-1907248D03*
G01X16929100Y-1907248D03*
G01X17056100Y-1907248D03*
G01X17183100Y-1907248D03*
G01X17310100Y-1907248D03*
G01X17437100Y-1907248D03*
G01X17564100Y-1907248D03*
G01X17691100Y-1907248D03*
G01X17818100Y-1907248D03*
G54D11*
G01X520700Y-3556000D03*
G01X520700Y-3302000D03*
G54D15*
G01X3682498Y-2020707D03*
G01X3886200Y-2019300D03*
G01X4076198Y-2030207D03*
G54D16*
G01X4383100Y-1968500D03*
G01X4583100Y-1968500D03*
G01X3887800Y-1701800D03*
G01X4087800Y-1701800D03*
G01X3389300Y-1993900D03*
G01X3189300Y-1993900D03*
G54D18*
G01X4000500Y-2234692D03*
G01X4000500Y-2997708D03*
G01X3873500Y-2997708D03*
G01X3873500Y-2234692D03*
G01X3746500Y-2234692D03*
G01X3746500Y-2997708D03*
G54D11*
G01X228600Y-3556000D03*
G01X228600Y-3302000D03*
G01X203200Y-2057400D03*
G01X203200Y-1803400D03*
G54D10*
G01X965200Y-3529000D03*
G01X965200Y-3329000D03*
G54D19*
G01X2285136Y-2133600D03*
G01X2134464Y-2133600D03*
G01X2285136Y-1917700D03*
G01X2134464Y-1917700D03*
G04 Pad End*

G04 Via Start*
G54D20*
G01X17094200Y-3327400D03*
G01X17093775Y-3656000D03*
G01X1372299Y-1962404D03*
G01X17005300Y-1789290D03*
G01X5537899Y-1924304D03*
G01X17122191Y-1764957D03*
G01X17894999Y-1924304D03*
G01X16624999Y-2051304D03*
G01X23406799Y-2114804D03*
G01X23101999Y-1911604D03*
G01X11302911Y-3829101D03*
G01X15265311Y-3244901D03*
G01X15798711Y-3841801D03*
G01X17919713Y-3270199D03*
G01X20307211Y-3841801D03*
G01X20891411Y-3257601D03*
G01X28422511Y-3740201D03*
G01X28803511Y-3232201D03*
G01X29336911Y-3829101D03*
G01X29921111Y-3244901D03*
G01X3811600Y-2070100D03*
G01X4141800Y-2400300D03*
G01X16410000Y-2755900D03*
G01X17639652Y-2791752D03*
G01X5854687Y-3752901D03*
G01X6261087Y-3244901D03*
G01X10388587Y-3740201D03*
G01X10769587Y-3232201D03*
G01X17017352Y-3071152D03*
G01X17513300Y-3045752D03*
G01X1346200Y-3403600D03*
G01X15506799Y-3225800D03*
G01X20764599Y-3225800D03*
G01X16979900Y-2059648D03*
G01X9827552Y-1968500D03*
G01X17564100Y-1729448D03*
G01X16217900Y-1704048D03*
G01X1816100Y-2195500D03*
G01X2298700Y-2246300D03*
G01X1104900Y-3465500D03*
G01X3009900Y-2957500D03*
G01X4705287Y-2946908D03*
G01X5238687Y-2362708D03*
G01X5873687Y-3556508D03*
G01X15925800Y-2093900D03*
G01X17437100Y-2055800D03*
G01X17691100Y-2309800D03*
G01X1485900Y-2046300D03*
G01X1054100Y-2147900D03*
G01X977900Y-2960700D03*
G01X2476500Y-1995500D03*
G01X4178300Y-1712900D03*
G01X4559300Y-2068500D03*
G01X5676900Y-2119300D03*
G01X6515100Y-2957500D03*
G01X9651302Y-2133600D03*
G01X10172700Y-2109800D03*
G01X11010900Y-2948000D03*
G01X14158900Y-2133600D03*
G01X14681200Y-2144700D03*
G01X15443200Y-2906700D03*
G01X18389600Y-2487600D03*
G01X18516600Y-2233600D03*
G01X18999200Y-2132000D03*
G01X23787100Y-2186000D03*
G01X24620512Y-3176600D03*
G01X27673300Y-2135200D03*
G01X27990800Y-2020900D03*
G01X29141712Y-3189300D03*
G01X32138931Y-2122500D03*
G01X32494531Y-2122500D03*
G01X32875531Y-3367100D03*
G04 Via End*

G04 Track Start*
G54D21*
G01X2114220Y-3136608D02*
G01X2209711Y-3232099D01*
G01X1764130Y-3136608D02*
G01X1798879Y-3101859D01*
G01X1960499Y-3101859D01*
G01X1995247Y-3136608D01*
G01X2114220Y-3136608D01*
G01X2209711Y-3232099D02*
G01X2468499Y-3232099D01*
G01X2628900Y-3392500D01*
G01X6545110Y-3392500D01*
G01X6692811Y-3244799D01*
G01X6938899Y-3244799D01*
G01X7086600Y-3392500D01*
G01X11066310Y-3392500D01*
G01X11201311Y-3257499D01*
G01X11485499Y-3257499D01*
G01X11620500Y-3392500D01*
G01X15574810Y-3392500D02*
G01X15697111Y-3270199D01*
G01X11620500Y-3392500D02*
G01X15278340Y-3392500D01*
G01X15286279Y-3400439D01*
G01X15447899Y-3400439D01*
G01X15455838Y-3392500D01*
G01X15574810Y-3392500D01*
G01X15697111Y-3270199D02*
G01X15955899Y-3270199D01*
G01X20019810Y-3456000D02*
G01X20205611Y-3270199D01*
G01X20527899Y-3270199D01*
G01X17310100Y-2918752D02*
G01X17310100Y-3319355D01*
G01X17173455Y-3456000D01*
G01X24553710Y-3405200D02*
G01X24714111Y-3244799D01*
G01X24972899Y-3244799D01*
G01X25120600Y-3392500D01*
G01X29100310Y-3392500D01*
G01X29235311Y-3257499D01*
G01X29519499Y-3257499D01*
G01X29654500Y-3392500D01*
G01X32969200Y-3392500D01*
G01X32981900Y-3379800D01*
G01X33596110Y-3379800D02*
G01X33731111Y-3244799D01*
G01X1434808Y-3556000D02*
G01X1549400Y-3670592D01*
G01X1879689Y-3702101D02*
G01X1998661Y-3702101D01*
G01X2128901Y-3571861D01*
G01X2290521Y-3571861D01*
G01X2420761Y-3702101D01*
G01X2519299Y-3702101D01*
G01X6240488Y-3592500D02*
G01X6362789Y-3714801D01*
G01X6481761Y-3714801D01*
G01X6612001Y-3584561D01*
G01X6773621Y-3584561D01*
G01X6903861Y-3714801D01*
G01X6964299Y-3714801D01*
G01X11485499Y-3727501D02*
G01X11620500Y-3592500D01*
G01X10871289Y-3727501D02*
G01X10990261Y-3727501D01*
G01X11120501Y-3597261D01*
G01X11282121Y-3597261D01*
G01X11412361Y-3727501D01*
G01X11485499Y-3727501D01*
G01X11620500Y-3592500D02*
G01X15219388Y-3592500D01*
G01X15367089Y-3740201D01*
G01X16057499Y-3740201D02*
G01X16141700Y-3656000D01*
G01X15367089Y-3740201D02*
G01X15486061Y-3740201D01*
G01X15616301Y-3609961D01*
G01X15777921Y-3609961D01*
G01X15908161Y-3740201D01*
G01X16057499Y-3740201D01*
G01X19791388Y-3656000D02*
G01X19875589Y-3740201D01*
G01X19994561Y-3740201D02*
G01X20124801Y-3609961D01*
G01X20286421Y-3609961D01*
G01X20416661Y-3740201D01*
G01X20527899Y-3740201D01*
G01X24274488Y-3605200D02*
G01X24384089Y-3714801D01*
G01X24998299Y-3714801D02*
G01X25120600Y-3592500D01*
G01X24384089Y-3714801D02*
G01X24503061Y-3714801D01*
G01X24633301Y-3584561D01*
G01X24794921Y-3584561D01*
G01X24925161Y-3714801D01*
G01X24998299Y-3714801D01*
G01X28770288Y-3592500D02*
G01X28905289Y-3727501D01*
G01X29519499Y-3727501D02*
G01X29654500Y-3592500D01*
G01X28905289Y-3727501D02*
G01X29024261Y-3727501D01*
G01X29154501Y-3597261D01*
G01X29316121Y-3597261D01*
G01X29446361Y-3727501D01*
G01X29519499Y-3727501D01*
G01X32969200Y-3592500D02*
G01X32981900Y-3579800D01*
G01X33266088Y-3579800D01*
G01X33401089Y-3714801D01*
G01X17183100Y-3238500D02*
G01X17094200Y-3327400D01*
G01X17356860Y-2894992D02*
G01X17333100Y-2918752D01*
G01X18161000Y-2640000D02*
G01X17517376Y-2640000D01*
G01X17356860Y-2800516D01*
G01X17356860Y-2894992D01*
G01X17160100Y-2856620D02*
G01X17160100Y-2918752D01*
G01X17505243Y-2440000D02*
G01X17206860Y-2738384D01*
G01X1270000Y-3136608D02*
G01X1295692Y-3136608D01*
G01X1764130Y-3136608D01*
G01X520700Y-3302000D02*
G01X228600Y-3302000D01*
G01X520700Y-3556000D02*
G01X228600Y-3556000D01*
G01X812800Y-1778000D02*
G01X546100Y-1778000D01*
G01X520700Y-1803400D01*
G01X203200Y-1803400D01*
G01X781017Y-2057400D02*
G01X808887Y-2085270D01*
G01X520700Y-2057400D02*
G01X781017Y-2057400D01*
G01X520700Y-2057400D02*
G01X203200Y-2057400D01*
G01X20662900Y-3405200D02*
G01X24553710Y-3405200D01*
G01X20527899Y-3270199D02*
G01X20662900Y-3405200D01*
G01X16141700Y-3456000D02*
G01X17173455Y-3456000D01*
G01X15955899Y-3270199D02*
G01X16141700Y-3456000D01*
G01X1130300Y-3302000D02*
G01X1295692Y-3136608D01*
G01X520700Y-3302000D02*
G01X1130300Y-3302000D01*
G01X29654500Y-3592500D02*
G01X32969200Y-3592500D01*
G01X25120600Y-3592500D02*
G01X28770288Y-3592500D01*
G01X20662900Y-3605200D02*
G01X24274488Y-3605200D01*
G01X20527899Y-3740201D02*
G01X20662900Y-3605200D01*
G01X18161000Y-2440000D02*
G01X17505243Y-2440000D01*
G01X17206860Y-2738384D02*
G01X17206860Y-2809860D01*
G01X17160100Y-2856620D01*
G01X17183100Y-2918752D02*
G01X17183100Y-3238500D01*
G01X17093775Y-3656000D02*
G01X19791388Y-3656000D01*
G01X16141700Y-3656000D02*
G01X17093775Y-3656000D01*
G01X10736288Y-3592500D02*
G01X10871289Y-3727501D01*
G01X7086600Y-3592500D02*
G01X10736288Y-3592500D01*
G01X6964299Y-3714801D02*
G01X7086600Y-3592500D01*
G01X2628900Y-3592500D02*
G01X6240488Y-3592500D01*
G01X2519299Y-3702101D02*
G01X2628900Y-3592500D01*
G01X1549400Y-3670592D02*
G01X1848180Y-3670592D01*
G54D22*
G01X1219899Y-2140204D02*
G01X1219899Y-2114804D01*
G01X1372299Y-1962404D01*
G01X17005300Y-1789290D02*
G01X17005300Y-1856448D01*
G01X17056100Y-1907248D01*
G01X5334699Y-2127504D02*
G01X5334699Y-2076704D01*
G01X5487099Y-1924304D01*
G01X5537899Y-1924304D01*
G01X17122191Y-1764957D02*
G01X17071391Y-1714157D01*
G01X16995191Y-1714157D01*
G01X16929100Y-1780248D01*
G01X16929100Y-1907248D01*
G01X9830499Y-2114804D02*
G01X9906699Y-2038604D01*
G01X9906699Y-1962404D01*
G01X9961855Y-1907248D01*
G01X15981655Y-1907248D01*
G01X16184855Y-2110448D01*
G01X16649700Y-2110448D01*
G01X16802100Y-1958048D01*
G01X16802100Y-1907248D01*
G01X14326299Y-2114804D02*
G01X14326299Y-2089404D01*
G01X14460898Y-1954804D01*
G01X15969698Y-1954804D01*
G01X16180499Y-2165604D01*
G01X16713899Y-2165604D01*
G01X16861942Y-2017560D01*
G01X16861942Y-1780248D01*
G01X16836542Y-1754848D01*
G01X16785742Y-1754848D01*
G01X16675100Y-1865490D01*
G01X16675100Y-1907248D01*
G01X18834799Y-2127504D02*
G01X18631599Y-1924304D01*
G01X17894999Y-1924304D01*
G01X16624999Y-2051304D02*
G01X16548100Y-1974405D01*
G01X16548100Y-1907248D01*
G01X23305199Y-2114804D02*
G01X23406799Y-2114804D01*
G01X23101999Y-1911604D02*
G01X22847999Y-1657604D01*
G01X16594544Y-1657604D01*
G01X16421100Y-1831048D01*
G01X16421100Y-1907248D01*
G01X27839099Y-2114804D02*
G01X27326742Y-1602448D01*
G01X16557142Y-1602448D01*
G01X16294100Y-1865490D01*
G01X16294100Y-1907248D01*
G01X32328715Y-2114291D02*
G01X31769915Y-1555491D01*
G01X16468057Y-1555491D01*
G01X16167100Y-1856448D01*
G01X16167100Y-1907248D01*
G01X11201311Y-3727501D02*
G01X11302911Y-3829101D01*
G01X15265311Y-3244901D02*
G01X15341791Y-3244901D01*
G01X15367089Y-3270199D01*
G01X15697111Y-3740201D02*
G01X15798711Y-3841801D01*
G01X17919713Y-3270199D02*
G01X19875589Y-3270199D01*
G01X20205611Y-3740201D02*
G01X20307211Y-3841801D01*
G01X20891411Y-3257601D02*
G01X24371287Y-3257601D01*
G01X24384089Y-3244799D01*
G01X24714111Y-3714801D02*
G01X24866511Y-3867201D01*
G01X28295511Y-3867201D01*
G01X28422511Y-3740201D01*
G01X28803511Y-3232201D02*
G01X28879991Y-3232201D01*
G01X28905289Y-3257499D01*
G01X29235311Y-3727501D02*
G01X29336911Y-3829101D01*
G01X29921111Y-3244901D02*
G01X29971911Y-3194101D01*
G01X33350391Y-3194101D01*
G01X33401089Y-3244799D01*
G01X520700Y-1803400D02*
G01X787400Y-1803400D01*
G01X812800Y-1778000D01*
G01X1995500Y-1778000D01*
G01X2109800Y-1892300D01*
G01X2109800Y-1816100D01*
G01X2211400Y-1714500D01*
G01X3456000Y-1714500D01*
G01X3811600Y-2070100D01*
G01X4141800Y-2400300D02*
G01X4446600Y-2705100D01*
G01X16359200Y-2705100D01*
G01X16410000Y-2755900D01*
G01X17639652Y-2791752D02*
G01X17639652Y-2867304D01*
G01X17691100Y-2918752D01*
G01X2209711Y-3702101D02*
G01X2362111Y-3854501D01*
G01X5753087Y-3854501D01*
G01X5854687Y-3752901D01*
G01X6261087Y-3244901D02*
G01X6362789Y-3244799D01*
G01X6692811Y-3714801D02*
G01X6845211Y-3867201D01*
G01X10261587Y-3867201D01*
G01X10388587Y-3740201D01*
G01X10769587Y-3232201D02*
G01X10845991Y-3232201D01*
G01X10871289Y-3257499D01*
G01X808887Y-2085270D02*
G01X808887Y-2288470D01*
G01X1035017Y-2514600D01*
G01X1728800Y-2514600D01*
G01X2109800Y-2133600D01*
G01X2109800Y-2235200D01*
G01X2643200Y-2768600D01*
G01X15825800Y-2768600D01*
G01X16128352Y-3071152D01*
G01X17017352Y-3071152D01*
G01X17513300Y-3045752D02*
G01X17513300Y-2969552D01*
G01X17564100Y-2918752D01*
G01X1346200Y-3403600D02*
G01X1708188Y-3403600D01*
G01X1879689Y-3232099D01*
G01X20764599Y-3225800D02*
G01X20942399Y-3048000D01*
G01X33820199Y-3048000D01*
G01X33896399Y-3124200D01*
G01X33896399Y-3549513D01*
G01X33731111Y-3714801D01*
G01X17818100Y-1907248D02*
G01X17818100Y-1983448D01*
G01X17566856Y-2234692D01*
G01X14950656Y-2234692D01*
G01X14696656Y-2488692D01*
G01X4358856Y-2488692D01*
G01X4206456Y-2336292D01*
G01X3825456Y-2336292D01*
G01X3746500Y-2257336D01*
G01X3746500Y-2234692D01*
G01X3746500Y-2084709D01*
G01X3682498Y-2020707D01*
G01X3416107Y-2020707D01*
G01X3389300Y-1993900D01*
G01X17564100Y-1907248D02*
G01X17564100Y-2110448D01*
G01X17487900Y-2186648D01*
G01X17106900Y-2186648D01*
G01X16979900Y-2059648D01*
G01X9827552Y-1968500D02*
G01X9649752Y-1790700D01*
G01X4484700Y-1790700D01*
G01X4383100Y-1892300D01*
G01X4383100Y-1968500D01*
G01X4137905Y-1968500D01*
G01X4076198Y-2030207D01*
G01X4076198Y-2158994D01*
G01X4000500Y-2234692D01*
G01X17691100Y-1907248D02*
G01X17691100Y-1856448D01*
G01X17564100Y-1729448D01*
G01X16217900Y-1704048D02*
G01X4381500Y-1704048D01*
G01X4203700Y-1881848D01*
G01X3991648Y-1881848D02*
G01X3890048Y-1780248D01*
G01X3890048Y-1704048D01*
G01X3887800Y-1701800D01*
G01X4017048Y-1881848D02*
G01X4017048Y-1888452D01*
G01X3886200Y-2019300D01*
G01X3886200Y-2221992D01*
G01X3873500Y-2234692D01*
G01X1460500Y-2347900D02*
G01X1237602Y-2347900D01*
G01X1219899Y-2330196D01*
G01X1460500Y-2347900D02*
G01X1536700Y-2347900D01*
G01X1689100Y-2195500D01*
G01X1816100Y-2195500D01*
G01X2298700Y-2246300D02*
G01X2298700Y-2144700D01*
G01X2309800Y-2133600D01*
G01X2309800Y-1892300D01*
G01X531800Y-3567100D02*
G01X520700Y-3556000D01*
G01X3009900Y-2957500D02*
G01X3706292Y-2957500D01*
G01X3746500Y-2997708D01*
G01X3873500Y-2997708D01*
G01X4000500Y-2997708D01*
G01X4654487Y-2997708D01*
G01X4705287Y-2946908D01*
G01X5238687Y-2362708D02*
G01X5289487Y-2362708D01*
G01X5334699Y-2317496D01*
G01X5570296Y-2317496D01*
G01X5575300Y-2322500D01*
G01X5873687Y-3556508D02*
G01X6204496Y-3556508D01*
G01X5575300Y-2322500D02*
G01X5608396Y-2355596D01*
G01X9779699Y-2355596D01*
G01X9830499Y-2304796D01*
G01X10066096Y-2304796D01*
G01X10071100Y-2309800D01*
G01X10121900Y-2360600D01*
G01X14270495Y-2360600D01*
G01X14326299Y-2304796D01*
G01X14561896Y-2304796D01*
G01X14579600Y-2322500D01*
G01X14706600Y-2322500D01*
G01X14960600Y-2068500D01*
G01X15900400Y-2068500D01*
G01X15925800Y-2093900D01*
G01X17437100Y-2055800D02*
G01X17437100Y-1907248D01*
G01X17691100Y-2309800D02*
G01X18030800Y-2309800D01*
G01X18161000Y-2440000D01*
G01X18237200Y-2363800D01*
G01X18788494Y-2363800D01*
G01X18834799Y-2317496D01*
G01X19108496Y-2317496D01*
G01X19113500Y-2322500D01*
G01X19146596Y-2355596D01*
G01X23254399Y-2355596D01*
G01X23305199Y-2304796D01*
G01X23604296Y-2304796D01*
G01X23609300Y-2309800D01*
G01X23660100Y-2360600D01*
G01X27783295Y-2360600D01*
G01X27839099Y-2304796D01*
G01X28061996Y-2304796D01*
G01X28079700Y-2322500D01*
G01X28112283Y-2355083D01*
G01X32277915Y-2355083D01*
G01X32328715Y-2304283D01*
G01X32595383Y-2304283D01*
G01X32600900Y-2309800D01*
G01X1460500Y-2147900D02*
G01X1460500Y-2071700D01*
G01X1485900Y-2046300D01*
G01X1054100Y-2147900D02*
G01X1054100Y-2171001D01*
G01X989902Y-2235200D01*
G01X2476500Y-1995500D02*
G01X3187700Y-1995500D01*
G01X3189300Y-1993900D01*
G01X4178300Y-1712900D02*
G01X4098900Y-1712900D01*
G01X4087800Y-1701800D01*
G01X4559300Y-2068500D02*
G01X4584700Y-2043100D01*
G01X4584700Y-1970100D01*
G01X4583100Y-1968500D01*
G01X4584700Y-2043100D02*
G01X4925301Y-2043100D01*
G01X5104702Y-2222500D01*
G01X5676900Y-2119300D02*
G01X5578500Y-2119300D01*
G01X5575300Y-2122500D01*
G01X6515100Y-2957500D02*
G01X6515100Y-3067088D01*
G01X6692811Y-3244799D01*
G01X5676900Y-2119300D02*
G01X9510001Y-2119300D01*
G01X9600502Y-2209800D01*
G01X9600502Y-2184400D01*
G01X9651302Y-2133600D01*
G01X10172700Y-2109800D02*
G01X10071100Y-2109800D01*
G01X11010900Y-2948000D02*
G01X11010900Y-3067088D01*
G01X11201311Y-3257499D01*
G01X10172700Y-2109800D02*
G01X13906500Y-2109800D01*
G01X14006500Y-2209800D01*
G01X14082700Y-2209800D02*
G01X14158900Y-2133600D01*
G01X14681200Y-2144700D02*
G01X14601800Y-2144700D01*
G01X14579600Y-2122500D01*
G01X15443200Y-2906700D02*
G01X15697111Y-3160611D01*
G01X15697111Y-3270199D01*
G01X18161000Y-2640000D02*
G01X18237200Y-2640000D01*
G01X18389600Y-2487600D01*
G01X18516600Y-2233600D02*
G01X18593702Y-2233600D01*
G01X18604802Y-2222500D01*
G01X18999200Y-2132000D02*
G01X19104000Y-2132000D01*
G01X19113500Y-2122500D01*
G01X18389600Y-2487600D02*
G01X19423012Y-2487600D01*
G01X20205611Y-3270199D01*
G01X19113500Y-2122500D02*
G01X22872700Y-2122500D01*
G01X22948900Y-2198700D01*
G01X23064102Y-2198700D02*
G01X23075202Y-2209800D01*
G01X23050500Y-2198700D02*
G01X23050500Y-2147900D01*
G01X23228300Y-1970100D01*
G01X23469600Y-1970100D01*
G01X23609300Y-2109800D01*
G01X23685500Y-2109800D01*
G01X23761700Y-2186000D01*
G01X23787100Y-2186000D01*
G01X24620512Y-3176600D02*
G01X24645912Y-3176600D01*
G01X24714111Y-3244799D01*
G01X23787100Y-2186000D02*
G01X27571700Y-2186000D01*
G01X27597100Y-2211400D01*
G01X27607501Y-2211400D01*
G01X27609102Y-2209800D01*
G01X27597100Y-2211400D02*
G01X27673300Y-2135200D01*
G01X27990800Y-2020900D02*
G01X27990800Y-2033600D01*
G01X28079700Y-2122500D01*
G01X29141712Y-3189300D02*
G01X29167112Y-3189300D01*
G01X29235311Y-3257499D01*
G01X28079700Y-2122500D02*
G01X31965900Y-2122500D01*
G01X32042100Y-2198700D01*
G01X32088131Y-2198700D01*
G01X32098718Y-2209287D01*
G01X32088131Y-2198700D02*
G01X32088131Y-2173300D01*
G01X32138931Y-2122500D01*
G01X32494531Y-2122500D02*
G01X32588200Y-2122500D01*
G01X32600900Y-2109800D01*
G01X32875531Y-3367100D02*
G01X32969200Y-3367100D01*
G01X32981900Y-3379800D01*
G54D21*
G01X520700Y-3556000D02*
G01X1104900Y-3556000D01*
G01X1434808Y-3556000D01*
G54D22*
G01X1104900Y-3465500D02*
G01X1104900Y-3556000D01*
G01X6204496Y-3556508D02*
G01X6240488Y-3592500D01*
G01X4203700Y-1881848D02*
G01X4017048Y-1881848D01*
G01X3991648Y-1881848D01*
G01X14006500Y-2209800D02*
G01X14082700Y-2209800D01*
G01X14096302Y-2209800D01*
G01X22948900Y-2198700D02*
G01X23050500Y-2198700D01*
G01X23064102Y-2198700D01*
G54D21*
G01X1848180Y-3670592D02*
G01X1879689Y-3702101D01*
G01X17173455Y-3456000D02*
G01X20019810Y-3456000D01*
G01X19875589Y-3740201D02*
G01X19994561Y-3740201D01*
G01X32981900Y-3379800D02*
G01X33596110Y-3379800D01*
G54D22*
G01X15201999Y-2895600D02*
G01X15506799Y-3200400D01*
G01X15506799Y-3225800D01*
G01X901799Y-2895600D02*
G01X2965168Y-2895600D01*
G01X11065131Y-2895600D02*
G01X15201999Y-2895600D01*
G01X2965168Y-2895600D02*
G01X2989260Y-2871508D01*
G01X11041039Y-2871508D01*
G01X11065131Y-2895600D01*
G01X811760Y-2805561D02*
G01X901799Y-2895600D01*
G01X215900Y-2768600D02*
G01X252861Y-2805561D01*
G01X811760Y-2805561D01*
G04 Track End*

M02*

