G04 Layer: BottomSilkscreenLayer*
G04 EasyEDA Pro v2.2.45.4, 2026-01-27 00:14:52*
G04 Gerber Generator version 0.3*
G04 Scale: 100 percent, Rotated: No, Reflected: No*
G04 Dimensions in millimeters*
G04 Leading zeros omitted, absolute positions, 4 integers and 5 decimals*
G04 Generated by one-click*
%FSLAX45Y45*%
%MOMM*%
%ADD10C,0.254*%
%ADD11C,0.0107*%
G75*


G04 PolygonModel Start*
G54D10*
G01X40030400Y-2476500D02*
G01X0Y-2476500D01*

G04 Rect Start*
G01X-2425700Y-5152400D02*
G01X-2425700Y-152400D01*
G01X37574300Y-152400D01*
G01X37574300Y-5152400D01*
G01X-2425700Y-5152400D01*
G01X927100Y-2455800D02*
G01X927100Y-1955800D01*
G01X5427100Y-1955800D01*
G01X5427100Y-2455800D01*
G01X927100Y-2455800D01*
G01X18946300Y-2459800D02*
G01X18946300Y-1959800D01*
G01X23446300Y-1959800D01*
G01X23446300Y-2459800D01*
G01X18946300Y-2459800D01*
G01X27950600Y-2459800D02*
G01X27950600Y-1959800D01*
G01X32450600Y-1959800D01*
G01X32450600Y-2459800D01*
G01X27950600Y-2459800D01*
G01X23454800Y-2459800D02*
G01X23454800Y-1959800D01*
G01X27954800Y-1959800D01*
G01X27954800Y-2459800D01*
G01X23454800Y-2459800D01*
G01X5433500Y-2459800D02*
G01X5433500Y-1959800D01*
G01X9933500Y-1959800D01*
G01X9933500Y-2459800D01*
G01X5433500Y-2459800D01*
G01X14437800Y-2459800D02*
G01X14437800Y-1959800D01*
G01X18937800Y-1959800D01*
G01X18937800Y-2459800D01*
G01X14437800Y-2459800D01*
G01X9929300Y-2459800D02*
G01X9929300Y-1959800D01*
G01X14429300Y-1959800D01*
G01X14429300Y-2459800D01*
G01X9929300Y-2459800D01*
G01X1776950Y-3727800D02*
G01X1776950Y-3227800D01*
G01X6276950Y-3227800D01*
G01X6276950Y-3727800D01*
G01X1776950Y-3727800D01*
G01X6283350Y-3731800D02*
G01X6283350Y-3231800D01*
G01X10783350Y-3231800D01*
G01X10783350Y-3731800D01*
G01X6283350Y-3731800D01*
G01X10779150Y-3731800D02*
G01X10779150Y-3231800D01*
G01X15279150Y-3231800D01*
G01X15279150Y-3731800D01*
G01X10779150Y-3731800D01*
G01X15287650Y-3731800D02*
G01X15287650Y-3231800D01*
G01X19787650Y-3231800D01*
G01X19787650Y-3731800D01*
G01X15287650Y-3731800D01*
G01X19796150Y-3731800D02*
G01X19796150Y-3231800D01*
G01X24296150Y-3231800D01*
G01X24296150Y-3731800D01*
G01X19796150Y-3731800D01*
G01X24304650Y-3731800D02*
G01X24304650Y-3231800D01*
G01X28804650Y-3231800D01*
G01X28804650Y-3731800D01*
G01X24304650Y-3731800D01*
G01X28800450Y-3731800D02*
G01X28800450Y-3231800D01*
G01X33300450Y-3231800D01*
G01X33300450Y-3731800D01*
G01X28800450Y-3731800D01*
G04 Rect End*

M02*

