G04 Layer: TopPasteMaskLayer*
G04 EasyEDA Pro v2.2.45.4, 2026-01-27 00:14:52*
G04 Gerber Generator version 0.3*
G04 Scale: 100 percent, Rotated: No, Reflected: No*
G04 Dimensions in millimeters*
G04 Leading zeros omitted, absolute positions, 4 integers and 5 decimals*
G04 Generated by one-click*
%FSLAX45Y45*%
%MOMM*%
%ADD10R,1.0X0.8*%
%ADD11R,1.2X1.6*%
%ADD12O,0.6X2.3*%
%ADD13C,0.5*%
%ADD14R,0.75999X1.27*%
%ADD15C,0.0201*%
G75*


G04 PolygonModel Start*
G36*
G01X1396500Y-2077402D02*
G01X1524498Y-2077402D01*
G01X1529499Y-2082404D01*
G01X1529499Y-2197405D01*
G01X1524498Y-2202404D01*
G01X1483495Y-2202906D01*
G01X1483495Y-2157905D01*
G01X1438496Y-2157905D01*
G01X1438496Y-2201906D01*
G01X1396500Y-2202404D01*
G01X1391498Y-2197405D01*
G01X1391498Y-2082404D01*
G01X1396500Y-2077402D01*
G37*
G36*
G01X1524500Y-2418397D02*
G01X1396502Y-2418397D01*
G01X1391501Y-2413396D01*
G01X1391501Y-2298395D01*
G01X1396502Y-2293396D01*
G01X1437505Y-2292894D01*
G01X1437505Y-2337895D01*
G01X1482504Y-2337895D01*
G01X1482504Y-2293894D01*
G01X1524500Y-2293396D01*
G01X1529502Y-2298395D01*
G01X1529502Y-2413396D01*
G01X1524500Y-2418397D01*
G37*
G36*
G01X18225000Y-2710497D02*
G01X18097002Y-2710497D01*
G01X18092001Y-2705496D01*
G01X18092001Y-2590495D01*
G01X18097002Y-2585496D01*
G01X18138005Y-2584994D01*
G01X18138005Y-2629995D01*
G01X18183004Y-2629995D01*
G01X18183004Y-2585994D01*
G01X18225000Y-2585496D01*
G01X18230002Y-2590495D01*
G01X18230002Y-2705496D01*
G01X18225000Y-2710497D01*
G37*
G36*
G01X18097000Y-2369502D02*
G01X18224998Y-2369502D01*
G01X18229999Y-2374504D01*
G01X18229999Y-2489505D01*
G01X18224998Y-2494504D01*
G01X18183995Y-2495006D01*
G01X18183995Y-2450005D01*
G01X18138996Y-2450005D01*
G01X18138996Y-2494006D01*
G01X18097000Y-2494504D01*
G01X18091998Y-2489505D01*
G01X18091998Y-2374504D01*
G01X18097000Y-2369502D01*
G37*
G36*
G01X5511300Y-2052002D02*
G01X5639298Y-2052002D01*
G01X5644299Y-2057004D01*
G01X5644299Y-2172005D01*
G01X5639298Y-2177004D01*
G01X5598295Y-2177506D01*
G01X5598295Y-2132505D01*
G01X5553296Y-2132505D01*
G01X5553296Y-2176506D01*
G01X5511300Y-2177004D01*
G01X5506298Y-2172005D01*
G01X5506298Y-2057004D01*
G01X5511300Y-2052002D01*
G37*
G36*
G01X5639300Y-2392997D02*
G01X5511302Y-2392997D01*
G01X5506301Y-2387996D01*
G01X5506301Y-2272995D01*
G01X5511302Y-2267996D01*
G01X5552305Y-2267494D01*
G01X5552305Y-2312495D01*
G01X5597304Y-2312495D01*
G01X5597304Y-2268494D01*
G01X5639300Y-2267996D01*
G01X5644302Y-2272995D01*
G01X5644302Y-2387996D01*
G01X5639300Y-2392997D01*
G37*
G36*
G01X10007100Y-2039302D02*
G01X10135098Y-2039302D01*
G01X10140099Y-2044304D01*
G01X10140099Y-2159305D01*
G01X10135098Y-2164304D01*
G01X10094095Y-2164806D01*
G01X10094095Y-2119805D01*
G01X10049096Y-2119805D01*
G01X10049096Y-2163806D01*
G01X10007100Y-2164304D01*
G01X10002098Y-2159305D01*
G01X10002098Y-2044304D01*
G01X10007100Y-2039302D01*
G37*
G36*
G01X10135100Y-2380297D02*
G01X10007102Y-2380297D01*
G01X10002101Y-2375296D01*
G01X10002101Y-2260295D01*
G01X10007102Y-2255296D01*
G01X10048105Y-2254794D01*
G01X10048105Y-2299795D01*
G01X10093104Y-2299795D01*
G01X10093104Y-2255794D01*
G01X10135100Y-2255296D01*
G01X10140102Y-2260295D01*
G01X10140102Y-2375296D01*
G01X10135100Y-2380297D01*
G37*
G36*
G01X14515600Y-2052002D02*
G01X14643598Y-2052002D01*
G01X14648599Y-2057004D01*
G01X14648599Y-2172005D01*
G01X14643598Y-2177004D01*
G01X14602595Y-2177506D01*
G01X14602595Y-2132505D01*
G01X14557596Y-2132505D01*
G01X14557596Y-2176506D01*
G01X14515600Y-2177004D01*
G01X14510598Y-2172005D01*
G01X14510598Y-2057004D01*
G01X14515600Y-2052002D01*
G37*
G36*
G01X14643600Y-2392997D02*
G01X14515602Y-2392997D01*
G01X14510601Y-2387996D01*
G01X14510601Y-2272995D01*
G01X14515602Y-2267996D01*
G01X14556605Y-2267494D01*
G01X14556605Y-2312495D01*
G01X14601604Y-2312495D01*
G01X14601604Y-2268494D01*
G01X14643600Y-2267996D01*
G01X14648602Y-2272995D01*
G01X14648602Y-2387996D01*
G01X14643600Y-2392997D01*
G37*
G36*
G01X19049500Y-2052002D02*
G01X19177498Y-2052002D01*
G01X19182499Y-2057004D01*
G01X19182499Y-2172005D01*
G01X19177498Y-2177004D01*
G01X19136495Y-2177506D01*
G01X19136495Y-2132505D01*
G01X19091496Y-2132505D01*
G01X19091496Y-2176506D01*
G01X19049500Y-2177004D01*
G01X19044498Y-2172005D01*
G01X19044498Y-2057004D01*
G01X19049500Y-2052002D01*
G37*
G36*
G01X19177500Y-2392997D02*
G01X19049502Y-2392997D01*
G01X19044501Y-2387996D01*
G01X19044501Y-2272995D01*
G01X19049502Y-2267996D01*
G01X19090505Y-2267494D01*
G01X19090505Y-2312495D01*
G01X19135504Y-2312495D01*
G01X19135504Y-2268494D01*
G01X19177500Y-2267996D01*
G01X19182502Y-2272995D01*
G01X19182502Y-2387996D01*
G01X19177500Y-2392997D01*
G37*
G36*
G01X23545300Y-2039302D02*
G01X23673298Y-2039302D01*
G01X23678299Y-2044304D01*
G01X23678299Y-2159305D01*
G01X23673298Y-2164304D01*
G01X23632295Y-2164806D01*
G01X23632295Y-2119805D01*
G01X23587296Y-2119805D01*
G01X23587296Y-2163806D01*
G01X23545300Y-2164304D01*
G01X23540298Y-2159305D01*
G01X23540298Y-2044304D01*
G01X23545300Y-2039302D01*
G37*
G36*
G01X23673300Y-2380297D02*
G01X23545302Y-2380297D01*
G01X23540301Y-2375296D01*
G01X23540301Y-2260295D01*
G01X23545302Y-2255296D01*
G01X23586305Y-2254794D01*
G01X23586305Y-2299795D01*
G01X23631304Y-2299795D01*
G01X23631304Y-2255794D01*
G01X23673300Y-2255296D01*
G01X23678302Y-2260295D01*
G01X23678302Y-2375296D01*
G01X23673300Y-2380297D01*
G37*
G36*
G01X28015700Y-2052002D02*
G01X28143698Y-2052002D01*
G01X28148699Y-2057004D01*
G01X28148699Y-2172005D01*
G01X28143698Y-2177004D01*
G01X28102695Y-2177506D01*
G01X28102695Y-2132505D01*
G01X28057696Y-2132505D01*
G01X28057696Y-2176506D01*
G01X28015700Y-2177004D01*
G01X28010698Y-2172005D01*
G01X28010698Y-2057004D01*
G01X28015700Y-2052002D01*
G37*
G36*
G01X28143700Y-2392997D02*
G01X28015702Y-2392997D01*
G01X28010701Y-2387996D01*
G01X28010701Y-2272995D01*
G01X28015702Y-2267996D01*
G01X28056705Y-2267494D01*
G01X28056705Y-2312495D01*
G01X28101704Y-2312495D01*
G01X28101704Y-2268494D01*
G01X28143700Y-2267996D01*
G01X28148702Y-2272995D01*
G01X28148702Y-2387996D01*
G01X28143700Y-2392997D01*
G37*
G36*
G01X32536900Y-2039302D02*
G01X32664898Y-2039302D01*
G01X32669899Y-2044304D01*
G01X32669899Y-2159305D01*
G01X32664898Y-2164304D01*
G01X32623895Y-2164806D01*
G01X32623895Y-2119805D01*
G01X32578896Y-2119805D01*
G01X32578896Y-2163806D01*
G01X32536900Y-2164304D01*
G01X32531898Y-2159305D01*
G01X32531898Y-2044304D01*
G01X32536900Y-2039302D01*
G37*
G36*
G01X32664900Y-2380297D02*
G01X32536902Y-2380297D01*
G01X32531901Y-2375296D01*
G01X32531901Y-2260295D01*
G01X32536902Y-2255296D01*
G01X32577905Y-2254794D01*
G01X32577905Y-2299795D01*
G01X32622904Y-2299795D01*
G01X32622904Y-2255794D01*
G01X32664900Y-2255296D01*
G01X32669902Y-2260295D01*
G01X32669902Y-2375296D01*
G01X32664900Y-2380297D01*
G37*
G36*
G01X2564900Y-3322002D02*
G01X2692898Y-3322002D01*
G01X2697899Y-3327004D01*
G01X2697899Y-3442005D01*
G01X2692898Y-3447004D01*
G01X2651895Y-3447506D01*
G01X2651895Y-3402505D01*
G01X2606896Y-3402505D01*
G01X2606896Y-3446506D01*
G01X2564900Y-3447004D01*
G01X2559898Y-3442005D01*
G01X2559898Y-3327004D01*
G01X2564900Y-3322002D01*
G37*
G36*
G01X2692900Y-3662997D02*
G01X2564902Y-3662997D01*
G01X2559901Y-3657996D01*
G01X2559901Y-3542995D01*
G01X2564902Y-3537996D01*
G01X2605905Y-3537494D01*
G01X2605905Y-3582495D01*
G01X2650904Y-3582495D01*
G01X2650904Y-3538494D01*
G01X2692900Y-3537996D01*
G01X2697902Y-3542995D01*
G01X2697902Y-3657996D01*
G01X2692900Y-3662997D01*
G37*
G36*
G01X7022600Y-3322002D02*
G01X7150598Y-3322002D01*
G01X7155599Y-3327004D01*
G01X7155599Y-3442005D01*
G01X7150598Y-3447004D01*
G01X7109595Y-3447506D01*
G01X7109595Y-3402505D01*
G01X7064596Y-3402505D01*
G01X7064596Y-3446506D01*
G01X7022600Y-3447004D01*
G01X7017598Y-3442005D01*
G01X7017598Y-3327004D01*
G01X7022600Y-3322002D01*
G37*
G36*
G01X7150600Y-3662997D02*
G01X7022602Y-3662997D01*
G01X7017601Y-3657996D01*
G01X7017601Y-3542995D01*
G01X7022602Y-3537996D01*
G01X7063605Y-3537494D01*
G01X7063605Y-3582495D01*
G01X7108604Y-3582495D01*
G01X7108604Y-3538494D01*
G01X7150600Y-3537996D01*
G01X7155602Y-3542995D01*
G01X7155602Y-3657996D01*
G01X7150600Y-3662997D01*
G37*
G36*
G01X11556500Y-3322002D02*
G01X11684498Y-3322002D01*
G01X11689499Y-3327004D01*
G01X11689499Y-3442005D01*
G01X11684498Y-3447004D01*
G01X11643495Y-3447506D01*
G01X11643495Y-3402505D01*
G01X11598496Y-3402505D01*
G01X11598496Y-3446506D01*
G01X11556500Y-3447004D01*
G01X11551498Y-3442005D01*
G01X11551498Y-3327004D01*
G01X11556500Y-3322002D01*
G37*
G36*
G01X11684500Y-3662997D02*
G01X11556502Y-3662997D01*
G01X11551501Y-3657996D01*
G01X11551501Y-3542995D01*
G01X11556502Y-3537996D01*
G01X11597505Y-3537494D01*
G01X11597505Y-3582495D01*
G01X11642504Y-3582495D01*
G01X11642504Y-3538494D01*
G01X11684500Y-3537996D01*
G01X11689502Y-3542995D01*
G01X11689502Y-3657996D01*
G01X11684500Y-3662997D01*
G37*
G36*
G01X16077700Y-3385502D02*
G01X16205698Y-3385502D01*
G01X16210699Y-3390504D01*
G01X16210699Y-3505505D01*
G01X16205698Y-3510504D01*
G01X16164695Y-3511006D01*
G01X16164695Y-3466005D01*
G01X16119696Y-3466005D01*
G01X16119696Y-3510006D01*
G01X16077700Y-3510504D01*
G01X16072698Y-3505505D01*
G01X16072698Y-3390504D01*
G01X16077700Y-3385502D01*
G37*
G36*
G01X16205700Y-3726497D02*
G01X16077702Y-3726497D01*
G01X16072701Y-3721496D01*
G01X16072701Y-3606495D01*
G01X16077702Y-3601496D01*
G01X16118705Y-3600994D01*
G01X16118705Y-3645995D01*
G01X16163704Y-3645995D01*
G01X16163704Y-3601994D01*
G01X16205700Y-3601496D01*
G01X16210702Y-3606495D01*
G01X16210702Y-3721496D01*
G01X16205700Y-3726497D01*
G37*
G36*
G01X20598900Y-3334702D02*
G01X20726898Y-3334702D01*
G01X20731899Y-3339704D01*
G01X20731899Y-3454705D01*
G01X20726898Y-3459704D01*
G01X20685895Y-3460206D01*
G01X20685895Y-3415205D01*
G01X20640896Y-3415205D01*
G01X20640896Y-3459206D01*
G01X20598900Y-3459704D01*
G01X20593898Y-3454705D01*
G01X20593898Y-3339704D01*
G01X20598900Y-3334702D01*
G37*
G36*
G01X20726900Y-3675697D02*
G01X20598902Y-3675697D01*
G01X20593901Y-3670696D01*
G01X20593901Y-3555695D01*
G01X20598902Y-3550696D01*
G01X20639905Y-3550194D01*
G01X20639905Y-3595195D01*
G01X20684904Y-3595195D01*
G01X20684904Y-3551194D01*
G01X20726900Y-3550696D01*
G01X20731902Y-3555695D01*
G01X20731902Y-3670696D01*
G01X20726900Y-3675697D01*
G37*
G36*
G01X25056600Y-3322002D02*
G01X25184598Y-3322002D01*
G01X25189599Y-3327004D01*
G01X25189599Y-3442005D01*
G01X25184598Y-3447004D01*
G01X25143595Y-3447506D01*
G01X25143595Y-3402505D01*
G01X25098596Y-3402505D01*
G01X25098596Y-3446506D01*
G01X25056600Y-3447004D01*
G01X25051598Y-3442005D01*
G01X25051598Y-3327004D01*
G01X25056600Y-3322002D01*
G37*
G36*
G01X25184600Y-3662997D02*
G01X25056602Y-3662997D01*
G01X25051601Y-3657996D01*
G01X25051601Y-3542995D01*
G01X25056602Y-3537996D01*
G01X25097605Y-3537494D01*
G01X25097605Y-3582495D01*
G01X25142604Y-3582495D01*
G01X25142604Y-3538494D01*
G01X25184600Y-3537996D01*
G01X25189602Y-3542995D01*
G01X25189602Y-3657996D01*
G01X25184600Y-3662997D01*
G37*
G36*
G01X29590500Y-3322002D02*
G01X29718498Y-3322002D01*
G01X29723499Y-3327004D01*
G01X29723499Y-3442005D01*
G01X29718498Y-3447004D01*
G01X29677495Y-3447506D01*
G01X29677495Y-3402505D01*
G01X29632496Y-3402505D01*
G01X29632496Y-3446506D01*
G01X29590500Y-3447004D01*
G01X29585498Y-3442005D01*
G01X29585498Y-3327004D01*
G01X29590500Y-3322002D01*
G37*
G36*
G01X29718500Y-3662997D02*
G01X29590502Y-3662997D01*
G01X29585501Y-3657996D01*
G01X29585501Y-3542995D01*
G01X29590502Y-3537996D01*
G01X29631505Y-3537494D01*
G01X29631505Y-3582495D01*
G01X29676504Y-3582495D01*
G01X29676504Y-3538494D01*
G01X29718500Y-3537996D01*
G01X29723502Y-3542995D01*
G01X29723502Y-3657996D01*
G01X29718500Y-3662997D01*
G37*
G36*
G01X32917900Y-3309302D02*
G01X33045898Y-3309302D01*
G01X33050899Y-3314304D01*
G01X33050899Y-3429305D01*
G01X33045898Y-3434304D01*
G01X33004895Y-3434806D01*
G01X33004895Y-3389805D01*
G01X32959896Y-3389805D01*
G01X32959896Y-3433806D01*
G01X32917900Y-3434304D01*
G01X32912898Y-3429305D01*
G01X32912898Y-3314304D01*
G01X32917900Y-3309302D01*
G37*
G36*
G01X33045900Y-3650297D02*
G01X32917902Y-3650297D01*
G01X32912901Y-3645296D01*
G01X32912901Y-3530295D01*
G01X32917902Y-3525296D01*
G01X32958905Y-3524794D01*
G01X32958905Y-3569795D01*
G01X33003904Y-3569795D01*
G01X33003904Y-3525794D01*
G01X33045900Y-3525296D01*
G01X33050902Y-3530295D01*
G01X33050902Y-3645296D01*
G01X33045900Y-3650297D01*
G37*
G36*
G01X4653102Y-1904500D02*
G01X4653102Y-2032498D01*
G01X4648101Y-2037499D01*
G01X4533100Y-2037499D01*
G01X4528101Y-2032498D01*
G01X4527598Y-1991495D01*
G01X4572599Y-1991495D01*
G01X4572599Y-1946496D01*
G01X4528599Y-1946496D01*
G01X4528101Y-1904500D01*
G01X4533100Y-1899498D01*
G01X4648101Y-1899498D01*
G01X4653102Y-1904500D01*
G37*
G36*
G01X4438101Y-1904500D02*
G01X4438099Y-1946496D01*
G01X4393601Y-1946496D01*
G01X4393601Y-1991495D01*
G01X4437598Y-1991495D01*
G01X4438101Y-2032498D01*
G01X4433100Y-2037499D01*
G01X4318102Y-2037499D01*
G01X4313100Y-2032498D01*
G01X4313100Y-1904500D01*
G01X4318102Y-1899498D01*
G01X4433100Y-1899498D01*
G01X4438101Y-1904500D01*
G37*
G36*
G01X4157802Y-1637800D02*
G01X4157802Y-1765798D01*
G01X4152801Y-1770799D01*
G01X4037800Y-1770799D01*
G01X4032801Y-1765798D01*
G01X4032298Y-1724795D01*
G01X4077299Y-1724795D01*
G01X4077299Y-1679796D01*
G01X4033299Y-1679796D01*
G01X4032801Y-1637800D01*
G01X4037800Y-1632798D01*
G01X4152801Y-1632798D01*
G01X4157802Y-1637800D01*
G37*
G36*
G01X3942801Y-1637800D02*
G01X3942799Y-1679796D01*
G01X3898301Y-1679796D01*
G01X3898301Y-1724795D01*
G01X3942298Y-1724795D01*
G01X3942801Y-1765798D01*
G01X3937800Y-1770799D01*
G01X3822802Y-1770799D01*
G01X3817800Y-1765798D01*
G01X3817800Y-1637800D01*
G01X3822802Y-1632798D01*
G01X3937800Y-1632798D01*
G01X3942801Y-1637800D01*
G37*
G36*
G01X3119298Y-2057900D02*
G01X3119298Y-1929902D01*
G01X3124299Y-1924901D01*
G01X3239300Y-1924901D01*
G01X3244299Y-1929902D01*
G01X3244802Y-1970905D01*
G01X3199801Y-1970905D01*
G01X3199801Y-2015904D01*
G01X3243801Y-2015904D01*
G01X3244299Y-2057900D01*
G01X3239300Y-2062902D01*
G01X3124299Y-2062902D01*
G01X3119298Y-2057900D01*
G37*
G36*
G01X3334299Y-2057900D02*
G01X3334301Y-2015904D01*
G01X3378799Y-2015904D01*
G01X3378799Y-1970905D01*
G01X3334802Y-1970905D01*
G01X3334299Y-1929902D01*
G01X3339300Y-1924901D01*
G01X3454298Y-1924901D01*
G01X3459300Y-1929902D01*
G01X3459300Y-2057900D01*
G01X3454298Y-2062902D01*
G01X3339300Y-2062902D01*
G01X3334299Y-2057900D01*
G37*
G36*
G01X901200Y-3258502D02*
G01X1029198Y-3258502D01*
G01X1034199Y-3263504D01*
G01X1034199Y-3378505D01*
G01X1029198Y-3383504D01*
G01X988195Y-3384006D01*
G01X988195Y-3339005D01*
G01X943196Y-3339005D01*
G01X943196Y-3383006D01*
G01X901200Y-3383504D01*
G01X896198Y-3378505D01*
G01X896198Y-3263504D01*
G01X901200Y-3258502D01*
G37*
G36*
G01X1029200Y-3599497D02*
G01X901202Y-3599497D01*
G01X896201Y-3594496D01*
G01X896201Y-3479495D01*
G01X901202Y-3474496D01*
G01X942205Y-3473994D01*
G01X942205Y-3518995D01*
G01X987204Y-3518995D01*
G01X987204Y-3474994D01*
G01X1029200Y-3474496D01*
G01X1034202Y-3479495D01*
G01X1034202Y-3594496D01*
G01X1029200Y-3599497D01*
G37*
G36*
G01X2329302Y-2088601D02*
G01X2249302Y-2088601D01*
G01X2244301Y-2093603D01*
G01X2244301Y-2116399D01*
G01X2281301Y-2116399D01*
G01X2281301Y-2149399D01*
G01X2244301Y-2149399D01*
G01X2244301Y-2173602D01*
G01X2249302Y-2178601D01*
G01X2329302Y-2178601D01*
G01X2334301Y-2173602D01*
G01X2334301Y-2093603D01*
G01X2329302Y-2088601D01*
G37*
G36*
G01X2090298Y-2178599D02*
G01X2170298Y-2178599D01*
G01X2175299Y-2173597D01*
G01X2175299Y-2150801D01*
G01X2138299Y-2150801D01*
G01X2138299Y-2117801D01*
G01X2175299Y-2117801D01*
G01X2175299Y-2093598D01*
G01X2170298Y-2088599D01*
G01X2090298Y-2088599D01*
G01X2085299Y-2093598D01*
G01X2085299Y-2173597D01*
G01X2090298Y-2178599D01*
G37*
G36*
G01X2329302Y-1872701D02*
G01X2249302Y-1872701D01*
G01X2244301Y-1877703D01*
G01X2244301Y-1900499D01*
G01X2281301Y-1900499D01*
G01X2281301Y-1933499D01*
G01X2244301Y-1933499D01*
G01X2244301Y-1957702D01*
G01X2249302Y-1962701D01*
G01X2329302Y-1962701D01*
G01X2334301Y-1957702D01*
G01X2334301Y-1877703D01*
G01X2329302Y-1872701D01*
G37*
G36*
G01X2090298Y-1962699D02*
G01X2170298Y-1962699D01*
G01X2175299Y-1957697D01*
G01X2175299Y-1934901D01*
G01X2138299Y-1934901D01*
G01X2138299Y-1901901D01*
G01X2175299Y-1901901D01*
G01X2175299Y-1877698D01*
G01X2170298Y-1872699D01*
G01X2090298Y-1872699D01*
G01X2085299Y-1877698D01*
G01X2085299Y-1957697D01*
G01X2090298Y-1962699D01*
G37*

G04 Pad Start*
G54D10*
G01X1219899Y-2140204D03*
G01X989902Y-2235200D03*
G01X1219899Y-2330196D03*
G01X5334699Y-2127504D03*
G01X5104702Y-2222500D03*
G01X5334699Y-2317496D03*
G01X9830499Y-2114804D03*
G01X9600502Y-2209800D03*
G01X9830499Y-2304796D03*
G01X14326299Y-2114804D03*
G01X14096302Y-2209800D03*
G01X14326299Y-2304796D03*
G01X18834799Y-2127504D03*
G01X18604802Y-2222500D03*
G01X18834799Y-2317496D03*
G01X23305199Y-2114804D03*
G01X23075202Y-2209800D03*
G01X23305199Y-2304796D03*
G01X27839099Y-2114804D03*
G01X27609102Y-2209800D03*
G01X27839099Y-2304796D03*
G01X32328715Y-2114291D03*
G01X32098718Y-2209287D03*
G01X32328715Y-2304283D03*
G54D11*
G01X1879689Y-3702101D03*
G01X2209711Y-3702101D03*
G01X2209711Y-3232099D03*
G01X1879689Y-3232099D03*
G01X6362789Y-3714801D03*
G01X6692811Y-3714801D03*
G01X6692811Y-3244799D03*
G01X6362789Y-3244799D03*
G01X10871289Y-3727501D03*
G01X11201311Y-3727501D03*
G01X11201311Y-3257499D03*
G01X10871289Y-3257499D03*
G01X15367089Y-3740201D03*
G01X15697111Y-3740201D03*
G01X15697111Y-3270199D03*
G01X15367089Y-3270199D03*
G01X19875589Y-3740201D03*
G01X20205611Y-3740201D03*
G01X20205611Y-3270199D03*
G01X19875589Y-3270199D03*
G01X24384089Y-3714801D03*
G01X24714111Y-3714801D03*
G01X24714111Y-3244799D03*
G01X24384089Y-3244799D03*
G01X28905289Y-3727501D03*
G01X29235311Y-3727501D03*
G01X29235311Y-3257499D03*
G01X28905289Y-3257499D03*
G01X33401089Y-3714801D03*
G01X33731111Y-3714801D03*
G01X33731111Y-3244799D03*
G01X33401089Y-3244799D03*
G54D12*
G01X16167100Y-2918752D03*
G01X16294100Y-2918752D03*
G01X16421100Y-2918752D03*
G01X16548100Y-2918752D03*
G01X16675100Y-2918752D03*
G01X16802100Y-2918752D03*
G01X16929100Y-2918752D03*
G01X17056100Y-2918752D03*
G01X17183100Y-2918752D03*
G01X17310100Y-2918752D03*
G01X17437100Y-2918752D03*
G01X17564100Y-2918752D03*
G01X17691100Y-2918752D03*
G01X17818100Y-2918752D03*
G01X16167100Y-1907248D03*
G01X16294100Y-1907248D03*
G01X16421100Y-1907248D03*
G01X16548100Y-1907248D03*
G01X16675100Y-1907248D03*
G01X16802100Y-1907248D03*
G01X16929100Y-1907248D03*
G01X17056100Y-1907248D03*
G01X17183100Y-1907248D03*
G01X17310100Y-1907248D03*
G01X17437100Y-1907248D03*
G01X17564100Y-1907248D03*
G01X17691100Y-1907248D03*
G01X17818100Y-1907248D03*
G54D13*
G01X3682498Y-2020707D03*
G01X3886200Y-2019300D03*
G01X4076198Y-2030207D03*
G54D14*
G01X4000500Y-2234692D03*
G01X4000500Y-2997708D03*
G01X3873500Y-2997708D03*
G01X3873500Y-2234692D03*
G01X3746500Y-2234692D03*
G01X3746500Y-2997708D03*
G04 Pad End*

M02*

